# Blender 5.0.1
# www.blender.org
mtllib model.mtl
o playgroundMesh
v -22.135262 -194.218903 7.472747
v -22.135262 -252.799484 7.472747
v -46.893837 -194.218903 7.472747
v -46.739449 -252.799484 7.472747
v -65.817421 -194.218903 7.472747
v -65.984436 -252.799484 7.472747
v -85.679329 -194.218903 7.472747
v -85.705315 -252.799484 7.472747
v -113.247421 -194.218903 7.472747
v -113.247421 -252.799484 7.472747
v -113.247421 -232.944901 7.472747
v -113.247421 -213.676758 7.472747
v -22.135262 -231.808746 7.472747
v -22.135262 -214.512802 7.472747
v -23.613510 -196.096573 7.472747
v -23.613510 -251.043259 7.472747
v -47.293579 -196.096573 7.472747
v -47.312477 -251.043259 7.472747
v -65.719162 -196.096573 7.472747
v -66.004654 -251.043259 7.472747
v -85.325951 -196.096573 7.472747
v -85.337921 -251.043259 7.472747
v -111.451691 -196.096573 7.472747
v -111.451691 -251.043259 7.472747
v -111.451691 -232.482468 7.472747
v -111.451691 -213.854263 7.472747
v -23.613510 -231.566696 7.472747
v -23.613510 -214.775604 7.472747
v -47.172318 -251.520767 8.177126
v -46.877197 -252.424438 8.165000
v -47.079216 -251.824326 8.444714
v -46.971195 -252.155090 8.440275
v -65.989281 -252.425598 8.162852
v -65.999680 -251.523560 8.181232
v -65.992599 -252.156067 8.439754
v -65.996407 -251.825897 8.446482
v -112.868668 -252.426300 8.161540
v -111.949326 -251.527084 8.186449
v -112.594330 -252.156891 8.439795
v -112.257812 -251.827728 8.448912
v -85.478821 -251.525604 8.184260
v -85.665955 -252.426208 8.161729
v -85.556686 -251.826996 8.447844
v -85.625183 -252.156647 8.439597
v -46.957924 -194.650406 8.171152
v -47.162514 -195.612671 8.177938
v -47.010235 -194.946991 8.443462
v -47.085121 -195.299210 8.445946
v -65.854828 -195.609818 8.182089
v -65.903175 -194.649582 8.169816
v -65.912445 -195.297684 8.447843
v -65.930145 -194.946213 8.443350
v -22.599325 -231.750061 8.171125
v -23.362343 -231.625000 8.166278
v -22.881901 -231.710495 8.441885
v -23.161184 -231.664719 8.440110
v -23.362270 -214.712296 8.166476
v -22.600155 -214.576645 8.172377
v -23.161257 -214.669189 8.440377
v -22.882303 -214.619537 8.442537
v -22.597477 -252.422623 8.168344
v -23.360411 -251.517029 8.171610
v -22.880718 -252.153687 8.441210
v -23.159969 -251.822235 8.442405
v -85.472923 -195.607819 8.185009
v -85.652161 -194.648514 8.168083
v -85.551888 -195.296555 8.449070
v -85.617493 -194.945419 8.442874
v -23.360189 -195.616592 8.172221
v -22.600037 -194.651047 8.172196
v -23.160202 -195.301270 8.443227
v -22.881964 -194.947845 8.443217
v -111.950188 -232.519867 8.187685
v -112.868324 -232.759552 8.162166
v -112.258209 -232.565857 8.449614
v -112.594276 -232.653595 8.440273
v -112.867561 -213.663696 8.163553
v -111.950294 -213.752594 8.187840
v -112.593910 -213.670425 8.440989
v -112.258163 -213.702957 8.449880
v -112.866318 -194.647110 8.165814
v -111.949661 -195.606506 8.186929
v -112.593208 -194.944519 8.441998
v -112.257690 -195.295685 8.449725
vn -0.0000 0.6799 0.7333
vn -0.0000 0.0198 0.9998
vn -0.0000 -0.6463 0.7631
vn -0.0000 0.6753 0.7375
vn 0.0001 0.0035 1.0000
vn 0.0001 -0.6508 0.7592
vn -0.7115 -0.0000 0.7027
vn -0.0248 -0.0000 0.9997
vn 0.6486 -0.0000 0.7611
vn -0.0000 0.6625 0.7491
vn -0.0000 -0.0085 1.0000
vn -0.0000 -0.7135 0.7007
vn 0.6479 -0.0000 0.7617
vn -0.0274 -0.0000 0.9996
vn -0.7122 -0.0000 0.7020
vn 0.6480 -0.0000 0.7617
vn -0.0271 -0.0000 0.9996
vn -0.7121 -0.0000 0.7021
vn -0.8054 -0.0001 0.5927
vn -0.0038 -0.0001 1.0000
vn 0.6923 -0.0000 0.7216
vn -0.0000 0.6786 0.7345
vn -0.0000 0.0152 0.9999
vn -0.0000 -0.6476 0.7620
vn 0.6928 -0.0000 0.7211
vn -0.0010 -0.0000 1.0000
vn -0.8048 -0.0000 0.5935
vn -0.0000 0.6589 0.7522
vn -0.0000 -0.0227 0.9997
vn -0.0000 -0.7172 0.6969
vn 0.6917 -0.0000 0.7222
vn -0.0070 -0.0000 1.0000
vn -0.8061 -0.0000 0.5918
vn -0.0000 0.6771 0.7359
vn -0.0000 0.0099 1.0000
vn -0.0000 -0.6491 0.7607
vn -0.0000 -0.7181 0.6959
vn -0.0000 -0.0264 0.9997
vn -0.0000 0.6580 0.7530
vn -0.0000 0.6604 0.7509
vn -0.0000 -0.0169 0.9999
vn -0.0000 -0.7157 0.6984
vn -0.0000 0.8277 0.5611
vn -0.0000 -0.8793 0.4764
vn 0.8203 -0.0000 0.5719
vn -0.0000 -0.8792 0.4764
vn -0.8763 -0.0000 0.4818
vn -0.0000 -0.8245 0.5658
vn -0.0000 0.8507 0.5256
vn -0.9402 -0.0000 0.3405
vn 0.8329 -0.0000 0.5534
vn 0.8203 -0.0000 0.5720
vt 3.797491 1.499747
vt 3.676646 4.413053
vt 3.651868 4.388947
vt 3.772691 1.494935
vt 3.599653 4.336446
vt 3.699344 1.484968
vt 3.561115 4.308657
vt 3.665190 1.474366
vt 3.082329 -6.523678
vt 3.568516 -3.746700
vt 3.535127 -3.736002
vt 3.046819 -6.489058
vt 3.434079 -3.713244
vt 2.979564 -6.407059
vt 3.387163 -3.697012
vt 2.943918 -6.367300
vt 1.128750 5.148382
vt 1.127922 5.122023
vt 1.124935 5.056273
vt 1.119317 5.031351
vt -3.863877 -6.050086
vt -4.211313 -3.349711
vt -4.247449 -3.364256
vt -3.899661 -6.086688
vt -4.332530 -3.383749
vt -3.967862 -6.166821
vt -4.362120 -3.397156
vt -4.001281 -6.201154
vt -3.633749 4.425206
vt -1.357028 4.854854
vt -1.367714 4.891179
vt -3.659776 4.450607
vt -1.391595 4.992337
vt -3.709245 4.504481
vt -1.410138 5.034328
vt -3.737813 4.533642
vt 0.625647 -6.624152
vt 0.631430 -6.659375
vt 0.639525 -6.753877
vt 0.645903 -6.786663
vt 3.784837 -1.189625
vt 3.737925 -1.183732
vt 3.634335 -1.180943
vt 3.597850 -1.186821
vt -1.583409 -6.727689
vt -1.574621 -6.688551
vt -1.556779 -6.578933
vt -1.547028 -6.539507
vt -4.197852 -0.847818
vt -4.050113 1.751630
vt -4.076660 1.764935
vt -4.228079 -0.847339
vt -4.147723 1.782426
vt -4.313149 -0.844957
vt -4.175820 1.790425
vt -4.349260 -0.844065
vt -3.796090 -5.976590
vt -4.132407 -3.325759
vt -4.425467 -0.841890
vt -4.425467 -3.417929
vt -4.131390 -0.849166
vt -4.062522 -6.269508
vt -3.990817 1.725842
vt -4.235468 1.801800
vt -3.585263 4.376113
vt -1.341403 4.772851
vt -3.788004 4.587276
vt -1.444374 5.122817
vt 3.285918 -3.666487
vt 2.878041 -6.288052
vt 3.883580 -1.205966
vt 3.639980 -3.763547
vt 3.147206 -6.592157
vt 3.518457 -1.201006
vt 3.849573 1.504303
vt 3.590271 1.454297
vt -1.528829 -6.449823
vt 0.656092 -6.859066
vt -1.599229 -6.814025
vt 0.616838 -6.544283
vt 3.715754 4.457390
vt 3.488890 4.252935
vt 1.126859 5.204247
vt 1.107986 4.975653
s 0
g playgroundMesh_playgroundMat
usemtl playgroundMat
f 66/1/1 81/2/1 83/3/1 68/4/1
f 68/4/2 83/3/2 84/5/2 67/6/2
f 67/6/3 84/5/3 82/7/3 65/8/3
f 70/9/4 45/10/4 47/11/4 72/12/4
f 72/12/5 47/11/5 48/13/5 71/14/5
f 71/14/6 48/13/6 46/15/6 69/16/6
f 81/2/7 77/17/7 79/18/7 83/3/7
f 83/3/8 79/18/8 80/19/8 84/5/8
f 84/5/9 80/19/9 78/20/9 82/7/9
f 62/21/10 29/22/10 31/23/10 64/24/10
f 64/24/11 31/23/11 32/25/11 63/26/11
f 63/26/12 32/25/12 30/27/12 61/28/12
f 38/29/13 73/30/13 75/31/13 40/32/13
f 40/32/14 75/31/14 76/33/14 39/34/14
f 39/34/15 76/33/15 74/35/15 37/36/15
f 73/30/16 78/20/16 80/19/16 75/31/16
f 75/31/17 80/19/17 79/18/17 76/33/17
f 76/33/18 79/18/18 77/17/18 74/35/18
f 69/16/19 57/37/19 59/38/19 71/14/19
f 71/14/20 59/38/20 60/39/20 72/12/20
f 72/12/21 60/39/21 58/40/21 70/9/21
f 50/41/22 66/1/22 68/4/22 52/42/22
f 52/42/23 68/4/23 67/6/23 51/43/23
f 51/43/24 67/6/24 65/8/24 49/44/24
f 61/28/25 53/45/25 55/46/25 63/26/25
f 63/26/26 55/46/26 56/47/26 64/24/26
f 64/24/27 56/47/27 54/48/27 62/21/27
f 34/49/28 41/50/28 43/51/28 36/52/28
f 36/52/29 43/51/29 44/53/29 35/54/29
f 35/54/30 44/53/30 42/55/30 33/56/30
f 53/45/31 58/40/31 60/39/31 55/46/31
f 55/46/32 60/39/32 59/38/32 56/47/32
f 56/47/33 59/38/33 57/37/33 54/48/33
f 45/10/34 50/41/34 52/42/34 47/11/34
f 47/11/35 52/42/35 51/43/35 48/13/35
f 48/13/36 51/43/36 49/44/36 46/15/36
f 37/36/37 42/55/37 44/53/37 39/34/37
f 39/34/38 44/53/38 43/51/38 40/32/38
f 40/32/39 43/51/39 41/50/39 38/29/39
f 29/22/40 34/49/40 36/52/40 31/23/40
f 31/23/41 36/52/41 35/54/41 32/25/41
f 32/25/42 35/54/42 33/56/42 30/27/42
f 29/22/43 62/21/43 16/57/43 18/58/43
f 6/59/44 4/60/44 30/27/44 33/56/44
f 34/49/43 29/22/43 18/58/43 20/61/43
f 4/60/44 2/62/44 61/28/44 30/27/44
f 41/50/43 34/49/43 20/61/43 22/63/43
f 8/64/44 6/59/44 33/56/44 42/55/44
f 73/30/45 38/29/45 24/65/45 25/66/45
f 8/64/46 42/55/46 37/36/46 10/67/46
f 11/68/47 10/67/47 37/36/47 74/35/47
f 41/50/43 22/63/43 24/65/43 38/29/43
f 46/15/48 17/69/48 15/70/48 69/16/48
f 5/71/49 50/41/49 45/10/49 3/72/49
f 3/72/49 45/10/49 70/9/49 1/73/49
f 49/44/48 19/74/48 17/69/48 46/15/48
f 7/75/49 66/1/49 50/41/49 5/71/49
f 65/8/48 21/76/48 19/74/48 49/44/48
f 54/48/50 27/77/50 16/57/50 62/21/50
f 14/78/51 58/40/51 53/45/51 13/79/51
f 13/79/51 53/45/51 61/28/51 2/62/51
f 57/37/50 28/80/50 27/77/50 54/48/50
f 14/78/51 1/73/51 70/9/51 58/40/51
f 57/37/50 69/16/50 15/70/50 28/80/50
f 9/81/49 81/2/49 66/1/49 7/75/49
f 82/7/48 23/82/48 21/76/48 65/8/48
f 12/83/47 11/68/47 74/35/47 77/17/47
f 78/20/52 73/30/52 25/66/52 26/84/52
f 78/20/52 26/84/52 23/82/52 82/7/52
f 12/83/47 77/17/47 81/2/47 9/81/47
