# Blender 5.0.1
# www.blender.org
mtllib model.mtl
o volleyballMesh
v 0.000000 0.000000 1.000000
v 0.258819 0.000000 0.965926
v 0.500000 0.000000 0.866025
v 0.707107 0.000000 0.707107
v 0.965926 0.000000 0.258819
v 1.000000 0.000000 0.000000
v 0.965926 0.000000 -0.258819
v 0.866025 0.000000 -0.500000
v 0.500000 0.000000 -0.866025
v 0.258819 0.000000 -0.965926
v 0.000000 0.000000 -1.000000
v 0.224144 -0.129410 0.965926
v 0.433013 -0.250000 0.866025
v 0.612372 -0.353553 0.707107
v 0.750000 -0.433013 0.500000
v 0.836516 -0.482963 0.258819
v 0.866025 -0.500000 0.000000
v 0.836516 -0.482963 -0.258819
v 0.750000 -0.433013 -0.500000
v 0.612372 -0.353553 -0.707107
v 0.433013 -0.250000 -0.866025
v 0.224144 -0.129410 -0.965926
v 0.129410 -0.224144 0.965926
v 0.250000 -0.433013 0.866025
v 0.353553 -0.612372 0.707107
v 0.433013 -0.750000 0.500000
v 0.482963 -0.836516 0.258819
v 0.500000 -0.866025 0.000000
v 0.482963 -0.836516 -0.258819
v 0.433013 -0.750000 -0.500000
v 0.353553 -0.612372 -0.707107
v 0.250000 -0.433013 -0.866025
v 0.129410 -0.224144 -0.965926
v 0.000000 -0.258819 0.965926
v 0.000000 -0.500000 0.866025
v -0.000000 -0.707107 0.707107
v -0.000000 -0.866025 0.500000
v -0.000000 -0.965926 0.258819
v 0.000000 -1.000000 0.000000
v -0.000000 -0.965926 -0.258819
v -0.000000 -0.866025 -0.500000
v -0.000000 -0.707107 -0.707107
v 0.000000 -0.500000 -0.866025
v 0.000000 -0.258819 -0.965926
v -0.129410 -0.224144 0.965926
v -0.250000 -0.433013 0.866025
v -0.353553 -0.612372 0.707107
v -0.433013 -0.750000 0.500000
v -0.482963 -0.836516 0.258819
v -0.500000 -0.866025 0.000000
v -0.482963 -0.836516 -0.258819
v -0.433013 -0.750000 -0.500000
v -0.353553 -0.612372 -0.707107
v -0.250000 -0.433013 -0.866025
v -0.129410 -0.224144 -0.965926
v -0.224144 -0.129410 0.965926
v -0.433013 -0.250000 0.866025
v -0.612372 -0.353553 0.707107
v -0.750000 -0.433013 0.500000
v -0.836516 -0.482963 0.258819
v -0.866025 -0.500000 0.000000
v -0.836516 -0.482963 -0.258819
v -0.750000 -0.433013 -0.500000
v -0.612372 -0.353553 -0.707107
v -0.433013 -0.250000 -0.866025
v -0.224144 -0.129410 -0.965926
v -0.258819 0.000000 0.965926
v -0.500000 0.000000 0.866025
v -0.707107 0.000000 0.707107
v -0.866025 0.000000 0.500000
v -0.965926 0.000000 0.258819
v -1.000000 0.000000 0.000000
v -0.965926 0.000000 -0.258819
v -0.866025 0.000000 -0.500000
v -0.707107 0.000000 -0.707107
v -0.500000 0.000000 -0.866025
v -0.258819 0.000000 -0.965926
v -0.224144 0.129410 0.965926
v -0.433013 0.250000 0.866025
v -0.612372 0.353553 0.707107
v -0.750000 0.433013 0.500000
v -0.836516 0.482963 0.258819
v -0.866025 0.500000 0.000000
v -0.836516 0.482963 -0.258819
v -0.750000 0.433013 -0.500000
v -0.612372 0.353553 -0.707107
v -0.433013 0.250000 -0.866025
v -0.224144 0.129410 -0.965926
v -0.129410 0.224144 0.965926
v -0.250000 0.433013 0.866025
v -0.353553 0.612372 0.707107
v -0.433013 0.750000 0.500000
v -0.482963 0.836516 0.258819
v -0.500000 0.866025 0.000000
v -0.482963 0.836516 -0.258819
v -0.433013 0.750000 -0.500000
v -0.353553 0.612372 -0.707107
v -0.250000 0.433013 -0.866025
v -0.129410 0.224144 -0.965926
v 0.000000 0.258819 0.965926
v 0.000000 0.500000 0.866025
v 0.000000 0.707107 0.707107
v 0.000000 0.866025 0.500000
v 0.000000 0.965926 0.258819
v 0.000000 1.000000 0.000000
v 0.000000 0.965926 -0.258819
v 0.000000 0.866025 -0.500000
v 0.000000 0.707107 -0.707107
v 0.000000 0.500000 -0.866025
v 0.000000 0.258819 -0.965926
v 0.129410 0.224144 0.965926
v 0.250000 0.433013 0.866025
v 0.353553 0.612372 0.707107
v 0.433013 0.750000 0.500000
v 0.482963 0.836516 0.258819
v 0.500000 0.866025 0.000000
v 0.482963 0.836516 -0.258819
v 0.433013 0.750000 -0.500000
v 0.353553 0.612372 -0.707107
v 0.250000 0.433013 -0.866025
v 0.129410 0.224144 -0.965926
v 0.224144 0.129410 0.965926
v 0.433013 0.250000 0.866025
v 0.612372 0.353553 0.707107
v 0.750000 0.433013 0.500000
v 0.836516 0.482963 0.258819
v 0.866025 0.500000 0.000000
v 0.836516 0.482963 -0.258819
v 0.750000 0.433013 -0.500000
v 0.612372 0.353553 -0.707107
v 0.433013 0.250000 -0.866025
v 0.224144 0.129410 -0.965926
v 0.866025 -0.000000 0.500000
v 0.707107 -0.000000 -0.707107
vn -0.0000 -0.0000 1.0000
vn 0.2789 -0.0000 0.9603
vn 0.5159 -0.0000 0.8566
vn 0.7176 -0.0000 0.6965
vn 0.9673 -0.0000 0.2536
vn 1.0000 -0.0000 -0.0000
vn 0.9673 -0.0000 -0.2536
vn 0.8712 -0.0000 -0.4909
vn 0.5159 -0.0000 -0.8566
vn 0.2789 -0.0000 -0.9603
vn -0.0000 -0.0000 -1.0000
vn 0.2415 -0.1394 0.9603
vn 0.4468 -0.2580 0.8566
vn 0.6215 -0.3588 0.6965
vn 0.7545 -0.4356 0.4909
vn 0.8377 -0.4837 0.2536
vn 0.8660 -0.5000 -0.0000
vn 0.8377 -0.4837 -0.2536
vn 0.7545 -0.4356 -0.4909
vn 0.6215 -0.3588 -0.6965
vn 0.4468 -0.2580 -0.8566
vn 0.2415 -0.1394 -0.9603
vn 0.1394 -0.2415 0.9603
vn 0.2580 -0.4468 0.8566
vn 0.3588 -0.6215 0.6965
vn 0.4356 -0.7545 0.4909
vn 0.4837 -0.8377 0.2536
vn 0.5000 -0.8660 -0.0000
vn 0.4837 -0.8377 -0.2536
vn 0.4356 -0.7545 -0.4909
vn 0.3588 -0.6215 -0.6965
vn 0.2580 -0.4468 -0.8566
vn 0.1394 -0.2415 -0.9603
vn -0.0000 -0.2789 0.9603
vn -0.0000 -0.5159 0.8566
vn -0.0000 -0.7176 0.6965
vn -0.0000 -0.8712 0.4909
vn -0.0000 -0.9673 0.2536
vn -0.0000 -1.0000 -0.0000
vn -0.0000 -0.9673 -0.2536
vn -0.0000 -0.8712 -0.4909
vn -0.0000 -0.7176 -0.6965
vn -0.0000 -0.5159 -0.8566
vn -0.0000 -0.2789 -0.9603
vn -0.1394 -0.2415 0.9603
vn -0.2580 -0.4468 0.8566
vn -0.3588 -0.6215 0.6965
vn -0.4356 -0.7545 0.4909
vn -0.4837 -0.8377 0.2536
vn -0.5000 -0.8660 -0.0000
vn -0.4837 -0.8377 -0.2536
vn -0.4356 -0.7545 -0.4909
vn -0.3588 -0.6215 -0.6965
vn -0.2580 -0.4468 -0.8566
vn -0.1394 -0.2415 -0.9603
vn -0.2415 -0.1394 0.9603
vn -0.4468 -0.2580 0.8566
vn -0.6215 -0.3588 0.6965
vn -0.7545 -0.4356 0.4909
vn -0.8377 -0.4837 0.2536
vn -0.8660 -0.5000 -0.0000
vn -0.8377 -0.4837 -0.2536
vn -0.7545 -0.4356 -0.4909
vn -0.6215 -0.3588 -0.6965
vn -0.4468 -0.2580 -0.8566
vn -0.2415 -0.1394 -0.9603
vn -0.2789 -0.0000 0.9603
vn -0.5159 -0.0000 0.8566
vn -0.7176 -0.0000 0.6965
vn -0.8712 -0.0000 0.4909
vn -0.9673 -0.0000 0.2536
vn -1.0000 -0.0000 -0.0000
vn -0.9673 -0.0000 -0.2536
vn -0.8712 -0.0000 -0.4909
vn -0.7176 -0.0000 -0.6965
vn -0.5159 -0.0000 -0.8566
vn -0.2789 -0.0000 -0.9603
vn -0.2415 0.1394 0.9603
vn -0.4468 0.2580 0.8566
vn -0.6215 0.3588 0.6965
vn -0.7545 0.4356 0.4909
vn -0.8377 0.4837 0.2536
vn -0.8660 0.5000 -0.0000
vn -0.8377 0.4837 -0.2536
vn -0.7545 0.4356 -0.4909
vn -0.6215 0.3588 -0.6965
vn -0.4468 0.2580 -0.8566
vn -0.2415 0.1394 -0.9603
vn -0.1394 0.2415 0.9603
vn -0.2580 0.4468 0.8566
vn -0.3588 0.6215 0.6965
vn -0.4356 0.7545 0.4909
vn -0.4837 0.8377 0.2536
vn -0.5000 0.8660 -0.0000
vn -0.4837 0.8377 -0.2536
vn -0.4356 0.7545 -0.4909
vn -0.3588 0.6215 -0.6965
vn -0.2580 0.4468 -0.8566
vn -0.1394 0.2415 -0.9603
vn -0.0000 0.2789 0.9603
vn -0.0000 0.5159 0.8566
vn -0.0000 0.7176 0.6965
vn -0.0000 0.8712 0.4909
vn -0.0000 0.9673 0.2536
vn -0.0000 1.0000 -0.0000
vn -0.0000 0.9673 -0.2536
vn -0.0000 0.8712 -0.4909
vn -0.0000 0.7176 -0.6965
vn -0.0000 0.5159 -0.8566
vn -0.0000 0.2789 -0.9603
vn 0.1394 0.2415 0.9603
vn 0.2580 0.4468 0.8566
vn 0.3588 0.6215 0.6965
vn 0.4356 0.7545 0.4909
vn 0.4837 0.8377 0.2536
vn 0.5000 0.8660 -0.0000
vn 0.4837 0.8377 -0.2536
vn 0.4356 0.7545 -0.4909
vn 0.3588 0.6215 -0.6965
vn 0.2580 0.4468 -0.8566
vn 0.1394 0.2415 -0.9603
vn 0.2415 0.1394 0.9603
vn 0.4468 0.2580 0.8566
vn 0.6215 0.3588 0.6965
vn 0.7545 0.4356 0.4909
vn 0.8377 0.4837 0.2536
vn 0.8660 0.5000 -0.0000
vn 0.8377 0.4837 -0.2536
vn 0.7545 0.4356 -0.4909
vn 0.6215 0.3588 -0.6965
vn 0.4468 0.2580 -0.8566
vn 0.2415 0.1394 -0.9603
vn 0.8712 -0.0000 0.4909
vn 0.7176 -0.0000 -0.6965
vt 0.619784 0.709695
vt 0.619784 0.793028
vt 0.536450 0.793028
vt 0.536450 0.709695
vt 0.619784 0.126362
vt 0.619783 0.209695
vt 0.536450 0.209695
vt 0.536450 0.126362
vt 0.619784 0.376362
vt 0.619784 0.459695
vt 0.536450 0.459695
vt 0.536450 0.376362
vt 0.619784 0.626362
vt 0.536450 0.626362
vt 0.619784 0.043028
vt 0.536450 0.043028
vt 0.882523 0.727244
vt 0.882523 0.647809
vt 0.922241 0.716602
vt 0.619784 0.293028
vt 0.536450 0.293028
vt 0.619784 0.543028
vt 0.536450 0.543028
vt 0.619784 0.876362
vt 0.536450 0.876362
vt 0.958104 0.345735
vt 0.958104 0.429068
vt 0.874770 0.429068
vt 0.874770 0.345735
vt 0.958104 0.595735
vt 0.958104 0.679068
vt 0.874770 0.679068
vt 0.874770 0.595735
vt 0.951316 0.687526
vt 0.958104 0.845735
vt 0.958104 0.929068
vt 0.874770 0.929068
vt 0.874770 0.845735
vt 0.958104 0.262402
vt 0.874770 0.262402
vt 0.958104 0.512402
vt 0.874770 0.512402
vt 0.958104 0.762402
vt 0.874770 0.762402
vt 0.958104 0.179068
vt 0.874770 0.179068
vt 0.958104 0.095735
vt 0.874770 0.095735
vt 0.791437 0.512402
vt 0.791437 0.429068
vt 0.791437 0.762402
vt 0.791437 0.679068
vt 0.791437 0.179068
vt 0.791437 0.095735
vt 0.961959 0.647809
vt 0.791437 0.345735
vt 0.791437 0.595735
vt 0.791437 0.929068
vt 0.791437 0.845735
vt 0.791437 0.262402
vt 0.500000 0.250000
vt 0.500000 0.333333
vt 0.416667 0.333333
vt 0.416667 0.250000
vt 0.500000 0.500000
vt 0.500000 0.583333
vt 0.416667 0.583333
vt 0.416667 0.500000
vt 0.500000 0.750000
vt 0.500000 0.833333
vt 0.416667 0.833333
vt 0.416667 0.750000
vt 0.500000 0.166667
vt 0.416667 0.166667
vt 0.500000 0.416667
vt 0.416667 0.416667
vt 0.500000 0.666667
vt 0.416667 0.666667
vt 0.500000 0.083333
vt 0.416667 0.083333
vt 0.951316 0.608091
vt 0.500000 0.916667
vt 0.416667 0.916667
vt 0.922241 0.579015
vt 0.333333 0.416667
vt 0.333333 0.333333
vt 0.333333 0.666667
vt 0.333333 0.583333
vt 0.333333 0.916667
vt 0.333333 0.833333
vt 0.333333 0.250000
vt 0.333333 0.500000
vt 0.333333 0.750000
vt 0.333333 0.166667
vt 0.333333 0.083333
vt 0.962713 0.141864
vt 0.962713 0.225197
vt 0.879380 0.225197
vt 0.879380 0.141864
vt 0.962713 0.391864
vt 0.962713 0.475197
vt 0.879380 0.475197
vt 0.879380 0.391864
vt 0.962713 0.641864
vt 0.962713 0.725197
vt 0.879380 0.725197
vt 0.879380 0.641864
vt 0.962713 0.058530
vt 0.879380 0.058530
vt 0.882523 0.568373
vt 0.962713 0.308530
vt 0.879380 0.308530
vt 0.962713 0.558530
vt 0.879380 0.558530
vt 0.962713 0.808530
vt 0.962713 0.891864
vt 0.879380 0.891864
vt 0.879380 0.808530
vt 0.796046 0.891864
vt 0.796046 0.808530
vt 0.796046 0.308530
vt 0.796046 0.225197
vt 0.796046 0.558530
vt 0.796046 0.475197
vt 0.796046 0.725197
vt 0.796046 0.141864
vt 0.796046 0.391863
vt 0.796046 0.641864
vt 0.796046 0.058530
vt 0.842805 0.579015
vt 0.166667 0.083333
vt 0.166667 0.166667
vt 0.083333 0.166667
vt 0.083333 0.083333
vt 0.813730 0.608091
vt 0.166667 0.333333
vt 0.166667 0.416667
vt 0.083333 0.416667
vt 0.083333 0.333333
vt 0.166667 0.583333
vt 0.166667 0.666667
vt 0.083333 0.666667
vt 0.083333 0.583333
vt 0.166667 0.833333
vt 0.166667 0.916667
vt 0.083333 0.916667
vt 0.083333 0.833333
vt 0.166667 0.250000
vt 0.083333 0.250000
vt 0.166667 0.500000
vt 0.083333 0.500000
vt 0.166667 0.750000
vt 0.083333 0.750000
vt 0.000000 0.833333
vt 0.000000 0.750000
vt 0.000000 0.250000
vt 0.000000 0.166667
vt 0.000000 0.500000
vt 0.000000 0.416667
vt 0.000000 0.666667
vt 0.000000 0.083333
vt 0.803087 0.647809
vt 0.000000 0.333333
vt 0.000000 0.583333
vt 0.000000 0.916667
vt 0.813730 0.687526
vt 1.000000 0.833333
vt 1.000000 0.916667
vt 0.916667 0.916667
vt 0.916667 0.833333
vt 1.000000 0.250000
vt 1.000000 0.333333
vt 0.916667 0.333333
vt 0.916667 0.250000
vt 1.000000 0.500000
vt 1.000000 0.583333
vt 0.916667 0.583333
vt 0.916667 0.500000
vt 1.000000 0.750000
vt 0.916667 0.750000
vt 1.000000 0.166667
vt 0.916667 0.166667
vt 1.000000 0.416667
vt 0.916667 0.416667
vt 1.000000 0.666667
vt 0.916667 0.666667
vt 1.000000 0.083333
vt 0.916667 0.083333
vt 0.833333 0.750000
vt 0.833333 0.666667
vt 0.833333 0.166667
vt 0.833333 0.083333
vt 0.842805 0.716602
vt 0.833333 0.416667
vt 0.833333 0.333333
vt 0.833333 0.583333
vt 0.833333 0.916667
vt 0.833333 0.833333
vt 0.833333 0.250000
vt 0.833333 0.500000
vt 0.703117 0.709695
vt 0.703117 0.793028
vt 0.703117 0.126362
vt 0.703117 0.209695
vt 0.703117 0.376362
vt 0.703117 0.459695
vt 0.703117 0.626362
vt 0.703117 0.043028
vt 0.703117 0.293028
vt 0.703117 0.543028
vt 0.703117 0.876362
s 1
g volleyballMesh_volleyballMat
usemtl volleyballMat
f 4/1/4 3/2/3 13/3/13 14/4/14
f 9/5/9 134/6/134 20/7/20 21/8/21
f 7/9/7 6/10/6 17/11/17 18/12/18
f 133/13/133 4/1/4 14/4/14 15/14/15
f 10/15/10 9/5/9 21/8/21 22/16/22
f 2/17/2 1/18/1 12/19/12
f 8/20/8 7/9/7 18/12/18 19/21/19
f 5/22/5 133/13/133 15/14/15 16/23/16
f 11/18/11 10/17/10 22/19/22
f 3/2/3 2/24/2 12/25/12 13/3/13
f 134/6/134 8/20/8 19/21/19 20/7/20
f 6/10/6 5/22/5 16/23/16 17/11/17
f 19/26/19 18/27/18 29/28/29 30/29/30
f 16/30/16 15/31/15 26/32/26 27/33/27
f 11/18/11 22/19/22 33/34/33
f 13/35/13 12/36/12 23/37/23 24/38/24
f 20/39/20 19/26/19 30/29/30 31/40/31
f 17/41/17 16/30/16 27/33/27 28/42/28
f 14/43/14 13/35/13 24/38/24 25/44/25
f 21/45/21 20/39/20 31/40/31 32/46/32
f 18/27/18 17/41/17 28/42/28 29/28/29
f 15/31/15 14/43/14 25/44/25 26/32/26
f 22/47/22 21/45/21 32/46/32 33/48/33
f 12/19/12 1/18/1 23/34/23
f 29/28/29 28/42/28 39/49/39 40/50/40
f 26/32/26 25/44/25 36/51/36 37/52/37
f 33/48/33 32/46/32 43/53/43 44/54/44
f 23/34/23 1/18/1 34/55/34
f 30/29/30 29/28/29 40/50/40 41/56/41
f 27/33/27 26/32/26 37/52/37 38/57/38
f 11/18/11 33/34/33 44/55/44
f 24/38/24 23/37/23 34/58/34 35/59/35
f 31/40/31 30/29/30 41/56/41 42/60/42
f 28/42/28 27/33/27 38/57/38 39/49/39
f 25/44/25 24/38/24 35/59/35 36/51/36
f 32/46/32 31/40/31 42/60/42 43/53/43
f 42/61/42 41/62/41 52/63/52 53/64/53
f 39/65/39 38/66/38 49/67/49 50/68/50
f 36/69/36 35/70/35 46/71/46 47/72/47
f 43/73/43 42/61/42 53/64/53 54/74/54
f 40/75/40 39/65/39 50/68/50 51/76/51
f 37/77/37 36/69/36 47/72/47 48/78/48
f 44/79/44 43/73/43 54/74/54 55/80/55
f 34/55/34 1/18/1 45/81/45
f 41/62/41 40/75/40 51/76/51 52/63/52
f 38/66/38 37/77/37 48/78/48 49/67/49
f 11/18/11 44/55/44 55/81/55
f 35/70/35 34/82/34 45/83/45 46/71/46
f 45/81/45 1/18/1 56/84/56
f 52/63/52 51/76/51 62/85/62 63/86/63
f 49/67/49 48/78/48 59/87/59 60/88/60
f 11/18/11 55/81/55 66/84/66
f 46/71/46 45/83/45 56/89/56 57/90/57
f 53/64/53 52/63/52 63/86/63 64/91/64
f 50/68/50 49/67/49 60/88/60 61/92/61
f 47/72/47 46/71/46 57/90/57 58/93/58
f 54/74/54 53/64/53 64/91/64 65/94/65
f 51/76/51 50/68/50 61/92/61 62/85/62
f 48/78/48 47/72/47 58/93/58 59/87/59
f 55/80/55 54/74/54 65/94/65 66/95/66
f 65/96/65 64/97/64 75/98/75 76/99/76
f 62/100/62 61/101/61 72/102/72 73/103/73
f 59/104/59 58/105/58 69/106/69 70/107/70
f 66/108/66 65/96/65 76/99/76 77/109/77
f 56/84/56 1/18/1 67/110/67
f 63/111/63 62/100/62 73/103/73 74/112/74
f 60/113/60 59/104/59 70/107/70 71/114/71
f 11/18/11 66/84/66 77/110/77
f 57/115/57 56/116/56 67/117/67 68/118/68
f 64/97/64 63/111/63 74/112/74 75/98/75
f 61/101/61 60/113/60 71/114/71 72/102/72
f 58/105/58 57/115/57 68/118/68 69/106/69
f 68/118/68 67/117/67 78/119/78 79/120/79
f 75/98/75 74/112/74 85/121/85 86/122/86
f 72/102/72 71/114/71 82/123/82 83/124/83
f 69/106/69 68/118/68 79/120/79 80/125/80
f 76/99/76 75/98/75 86/122/86 87/126/87
f 73/103/73 72/102/72 83/124/83 84/127/84
f 70/107/70 69/106/69 80/125/80 81/128/81
f 77/109/77 76/99/76 87/126/87 88/129/88
f 67/110/67 1/18/1 78/130/78
f 74/112/74 73/103/73 84/127/84 85/121/85
f 71/114/71 70/107/70 81/128/81 82/123/82
f 11/18/11 77/110/77 88/130/88
f 88/131/88 87/132/87 98/133/98 99/134/99
f 78/130/78 1/18/1 89/135/89
f 85/136/85 84/137/84 95/138/95 96/139/96
f 82/140/82 81/141/81 92/142/92 93/143/93
f 11/18/11 88/130/88 99/135/99
f 79/144/79 78/145/78 89/146/89 90/147/90
f 86/148/86 85/136/85 96/139/96 97/149/97
f 83/150/83 82/140/82 93/143/93 94/151/94
f 80/152/80 79/144/79 90/147/90 91/153/91
f 87/132/87 86/148/86 97/149/97 98/133/98
f 84/137/84 83/150/83 94/151/94 95/138/95
f 81/141/81 80/152/80 91/153/91 92/142/92
f 91/153/91 90/147/90 101/154/101 102/155/102
f 98/133/98 97/149/97 108/156/108 109/157/109
f 95/138/95 94/151/94 105/158/105 106/159/106
f 92/142/92 91/153/91 102/155/102 103/160/103
f 99/134/99 98/133/98 109/157/109 110/161/110
f 89/135/89 1/18/1 100/162/100
f 96/139/96 95/138/95 106/159/106 107/163/107
f 93/143/93 92/142/92 103/160/103 104/164/104
f 11/18/11 99/135/99 110/162/110
f 90/147/90 89/146/89 100/165/100 101/154/101
f 97/149/97 96/139/96 107/163/107 108/156/108
f 94/151/94 93/143/93 104/164/104 105/158/105
f 11/18/11 110/162/110 121/166/121
f 101/167/101 100/168/100 111/169/111 112/170/112
f 108/171/108 107/172/107 118/173/118 119/174/119
f 105/175/105 104/176/104 115/177/115 116/178/116
f 102/179/102 101/167/101 112/170/112 113/180/113
f 109/181/109 108/171/108 119/174/119 120/182/120
f 106/183/106 105/175/105 116/178/116 117/184/117
f 103/185/103 102/179/102 113/180/113 114/186/114
f 110/187/110 109/181/109 120/182/120 121/188/121
f 100/162/100 1/18/1 111/166/111
f 107/172/107 106/183/106 117/184/117 118/173/118
f 104/176/104 103/185/103 114/186/114 115/177/115
f 114/186/114 113/180/113 124/189/124 125/190/125
f 121/188/121 120/182/120 131/191/131 132/192/132
f 111/166/111 1/18/1 122/193/122
f 118/173/118 117/184/117 128/194/128 129/195/129
f 115/177/115 114/186/114 125/190/125 126/196/126
f 11/18/11 121/166/121 132/193/132
f 112/170/112 111/169/111 122/197/122 123/198/123
f 119/174/119 118/173/118 129/195/129 130/199/130
f 116/178/116 115/177/115 126/196/126 127/200/127
f 113/180/113 112/170/112 123/198/123 124/189/124
f 120/182/120 119/174/119 130/199/130 131/191/131
f 117/184/117 116/178/116 127/200/127 128/194/128
f 124/201/124 123/202/123 3/2/3 4/1/4
f 131/203/131 130/204/130 134/6/134 9/5/9
f 128/205/128 127/206/127 6/10/6 7/9/7
f 125/207/125 124/201/124 4/1/4 133/13/133
f 132/208/132 131/203/131 9/5/9 10/15/10
f 122/193/122 1/18/1 2/17/2
f 129/209/129 128/205/128 7/9/7 8/20/8
f 126/210/126 125/207/125 133/13/133 5/22/5
f 11/18/11 132/193/132 10/17/10
f 123/202/123 122/211/122 2/24/2 3/2/3
f 130/204/130 129/209/129 8/20/8 134/6/134
f 127/206/127 126/210/126 5/22/5 6/10/6
