# Blender 5.0.1
# www.blender.org
mtllib model.mtl
o lavaMesh.old
v -159.714661 -26.072609 10.293251
v -108.594696 -9.954073 134.644257
v -161.216354 -7.439074 10.896149
v -109.006775 -9.954073 140.269745
v -163.202133 1.339280 11.824837
v -105.218185 1.339280 141.829681
v -161.216354 10.117634 10.896149
v -109.006775 12.632631 140.269745
v -159.714661 28.751167 10.293251
v -108.594696 12.632631 134.644257
v -178.801758 -26.635546 10.293251
v -178.801758 1.339282 10.293251
v -178.801758 29.314104 10.293251
v -178.801758 29.314104 4.782570
v -178.801758 -26.635546 4.782570
v -157.008209 28.751167 4.376747
v -166.928558 1.339282 10.293251
v -157.008209 -26.072609 4.376747
v -120.432037 -13.198730 133.195572
v -128.871460 -7.439074 134.054321
v -131.350891 -7.439074 133.037216
v -134.527054 -7.439074 125.366188
v -135.232010 -7.439074 117.738739
v -136.241928 -7.439074 107.739037
v -137.726089 -7.439074 94.573418
v -139.306137 -7.439074 79.175728
v -141.238770 -7.439074 62.632210
v -144.060547 -7.439074 46.167656
v -148.067520 -12.277866 31.065445
v -152.865997 -20.298733 18.453087
v -120.994217 -13.180441 140.465149
v -129.159393 -7.457363 138.390091
v -135.319153 -7.439074 134.901596
v -138.756210 -7.439074 126.522575
v -139.610321 -7.439074 117.969963
v -140.591980 -7.439074 107.971916
v -142.033386 -7.439074 94.850136
v -143.579941 -7.439074 79.570175
v -145.491119 -7.439074 63.233124
v -148.293304 -7.439074 47.059555
v -152.264557 -7.439074 32.304810
v -156.957474 -7.439074 20.028870
v -121.049622 1.339280 141.221527
v -129.351913 1.339280 140.613373
v -137.303284 1.339280 135.833801
v -140.870804 1.339280 127.100777
v -141.799469 1.339280 118.085579
v -142.789291 1.339280 108.093216
v -144.248993 1.339280 95.002686
v -145.824265 1.339280 79.793785
v -147.748276 1.339280 63.569431
v -150.494019 1.339280 47.532356
v -154.374725 1.339280 32.928574
v -159.003204 1.339280 20.816750
v -120.994217 15.858999 140.465149
v -129.191772 10.117634 138.427032
v -135.319153 10.117634 134.901596
v -138.756210 10.117634 126.522575
v -139.610321 10.117634 117.969963
v -140.591980 10.117634 107.971916
v -142.033386 10.117634 94.850136
v -143.579941 10.117634 79.570175
v -145.491119 10.117634 63.233124
v -148.293304 10.117634 47.059555
v -152.264557 10.117634 32.304810
v -156.957474 10.117634 20.028870
v -120.464424 15.858999 133.232513
v -128.871460 10.117634 134.054321
v -131.350891 10.117634 133.037216
v -134.527054 10.117634 125.366188
v -135.232010 10.117634 117.738739
v -136.241928 10.117634 107.739037
v -137.726089 10.117634 94.573418
v -139.306137 10.117634 79.175728
v -141.238770 10.117634 62.632210
v -144.060547 10.117634 46.167656
v -148.067520 14.956427 31.065445
v -152.865997 22.977291 18.453087
v -191.468811 -22.122156 4.782562
v -191.468811 -22.122156 10.293243
v -191.468811 1.339282 10.293243
v -192.538300 28.329706 10.293243
v -192.538300 28.329706 4.782562
v -199.464752 -11.851797 4.782562
v -199.464752 -11.851797 10.293243
v -202.634308 1.339281 10.293243
v -196.627289 4.434727 10.293243
v -196.627289 4.434727 4.782562
v -204.543976 -3.429785 4.782562
v -204.543976 -3.429785 10.293243
v -204.543976 1.339281 10.293243
v -204.543976 6.108346 10.293243
v -204.543976 6.108346 4.782562
v -122.737099 24.227905 63.694965
v -132.347168 17.949148 62.479343
v -130.913742 26.594101 62.922859
v -113.783600 20.198864 65.340187
v -129.119278 -13.890680 136.509140
v -129.545578 -16.065025 135.651825
v -129.445984 -16.367569 132.708862
v -130.972839 -14.745773 137.808258
v -131.531281 -16.328131 136.622879
v -131.787964 -16.825611 133.057358
v -132.337219 -13.232898 137.770676
v -133.272858 -14.572683 137.222305
v -133.342957 -13.453962 133.454346
v -126.635460 -13.242114 136.006027
v -128.776871 -10.478657 138.970123
v -129.326660 -9.126236 138.787323
v -126.774529 -13.101380 127.995575
v -131.137909 -16.292192 127.664742
v -133.055908 -13.359609 128.490356
v -129.554352 -15.098946 119.455597
v -132.485001 -16.314095 122.197807
v -133.354462 -14.422705 121.869240
v -130.810959 -18.047447 118.999695
v -133.425278 -17.742506 121.399384
v -134.307953 -16.129276 120.256386
v -138.309143 -5.585942 97.372337
v -135.502579 -6.294962 97.273247
v -138.587006 -15.509904 107.109352
v -133.695648 -10.233881 137.222305
v -133.655746 -10.244028 133.454346
v -133.342056 -10.423094 128.490356
v -133.686752 -11.012733 121.869247
v -134.730743 -11.790474 120.256386
v -140.201614 -15.102006 107.166359
v -140.665237 -14.282027 107.850487
v -137.332062 -12.580044 109.748100
v -140.487091 -15.702576 113.569931
v -140.457489 -17.706301 111.672318
v -139.993866 -18.526279 110.988190
v -138.379257 -18.934177 110.931183
v -135.154480 -22.050346 116.147949
v -136.777435 -20.163788 119.597870
v -138.651474 -20.132175 117.404640
v -139.074265 -15.793371 117.404640
v -136.953323 -13.835671 118.800163
v -136.530533 -18.174475 118.800163
v -135.647858 -19.787704 119.943161
v -133.033539 -20.092646 117.543472
v -139.115021 -4.160630 98.561508
v -133.321198 -1.202192 101.859993
v -142.050690 -14.633158 106.170441
v -142.512512 -13.816345 106.851936
v -139.192215 -12.120934 108.742226
v -140.442307 -15.039482 106.113663
v -142.714127 -11.736911 104.154526
v -139.380951 -10.034927 106.052139
v -142.250504 -12.556890 103.470398
v -140.635895 -12.964787 103.413391
v -130.226974 -14.413616 104.221710
v -130.019226 -17.837891 108.043541
v -126.794449 -20.954060 113.260307
v -9.414609 86.233017 8.584567
v -10.057625 60.140804 8.584567
v -35.929611 87.081879 8.584567
v -1.672147 71.735130 8.584567
v -48.458416 61.586170 8.584567
v -50.294575 65.658173 8.584567
v -836.472717 237.623947 798.449707
v -835.274475 229.201233 798.449707
v -839.706909 219.459061 798.449707
v -845.358093 210.047226 798.449707
v -848.528137 204.404373 798.449707
v -856.070312 200.280502 798.449707
v -864.495117 195.003616 798.449707
v -873.220093 190.457504 798.449707
v -892.325073 190.457504 798.449707
v -902.536926 194.387344 798.449707
v -909.678833 198.381653 798.449707
v -917.498108 204.503326 798.449707
v -923.910034 212.328217 798.449707
v -927.516296 220.116058 798.449707
v -930.271973 229.201233 798.449707
v -932.483704 240.292862 798.449707
v -930.271973 248.097382 798.449707
v -927.516296 257.182587 798.449707
v -923.239075 269.111633 798.449707
v -917.017029 272.894104 798.449707
v -909.678833 278.916992 798.449707
v -901.237366 284.626526 798.449707
v -892.221130 286.148376 798.449707
v -882.772583 287.078796 798.449707
v -874.444031 287.112305 798.449707
v -864.239807 283.392212 798.449707
v -855.866333 278.916992 798.449707
v -850.751404 271.907227 798.449707
v -842.504944 265.555420 798.449707
v -838.343201 259.835449 798.449707
v -835.274475 248.097382 798.449707
v -868.729980 192.182037 798.449707
v -882.795654 238.975006 798.449707
vn 0.2602 -0.9653 0.0225
vn 0.0302 -0.0519 0.9982
vn 0.0302 0.0519 0.9982
vn 0.2601 0.9654 0.0191
vn -0.7345 0.0810 0.6738
vn -0.8017 0.3172 0.5067
vn -0.6471 0.6593 0.3829
vn -0.0000 1.0000 -0.0000
vn -0.5662 0.8232 -0.0415
vn -0.8791 0.2423 0.4105
vn -0.9063 0.2423 0.3463
vn -0.9375 0.2431 0.2491
vn -0.9545 0.2482 0.1654
vn -0.9613 0.2515 0.1125
vn -0.9634 0.2488 0.0998
vn -0.9635 0.2451 0.1074
vn -0.9653 0.2429 0.0956
vn -0.9655 0.2420 0.0964
vn -0.8985 0.2406 0.3671
vn -0.5044 0.2031 0.8392
vn -0.0709 0.2423 0.9676
vn -0.8791 -0.2423 0.4105
vn -0.9063 -0.2423 0.3463
vn -0.9375 -0.2431 0.2491
vn -0.9545 -0.2482 0.1654
vn -0.9613 -0.2515 0.1125
vn -0.9634 -0.2488 0.0998
vn -0.9635 -0.2451 0.1074
vn -0.9653 -0.2429 0.0956
vn -0.9655 -0.2420 0.0964
vn -0.8985 -0.2406 0.3671
vn -0.5044 -0.2031 0.8392
vn -0.0708 -0.2459 0.9667
vn -0.7345 -0.0810 0.6738
vn -0.8017 -0.3172 0.5067
vn -0.6471 -0.6593 0.3829
vn -0.0000 -1.0000 -0.0000
vn -0.0013 -1.0000 -0.0029
vn -0.5661 -0.8233 -0.0411
vn -0.0000 -0.0000 1.0000
vn 0.0260 -0.9996 0.0119
vn 0.0295 0.9996 -0.0000
vn -0.3739 0.1808 0.9097
vn -0.1743 -0.0459 0.9836
vn -0.3356 -0.9420 -0.0000
vn -0.0715 0.9974 -0.0000
vn -0.7891 -0.6143 -0.0000
vn -0.9857 0.1687 -0.0000
vn -1.0000 -0.0000 -0.0000
vn -0.8563 -0.5164 -0.0000
vn 0.2068 0.9784 -0.0000
vn -0.0000 -0.0000 -1.0000
vn 0.2621 -0.9648 0.0192
vn -0.0381 -0.1242 0.9915
vn -0.0381 0.1242 0.9915
vn -0.8580 0.3220 0.4001
vn -0.6937 0.6696 0.2652
vn -0.8794 0.2417 0.4101
vn -0.9062 0.2425 0.3464
vn -0.9354 0.2481 0.2518
vn -0.9540 0.2515 0.1633
vn -0.9618 0.2488 0.1141
vn -0.9646 0.2451 0.0976
vn -0.9643 0.2428 0.1059
vn -0.9656 0.2421 0.0948
vn -0.9659 0.2392 0.0995
vn -0.8977 0.2420 0.3682
vn -0.4865 0.2195 0.8456
vn -0.2745 0.0511 0.9602
vn -0.8794 -0.2417 0.4101
vn -0.9062 -0.2425 0.3464
vn -0.9354 -0.2481 0.2518
vn -0.9540 -0.2515 0.1633
vn -0.9618 -0.2488 0.1141
vn -0.9646 -0.2451 0.0976
vn -0.9643 -0.2428 0.1059
vn -0.9656 -0.2421 0.0948
vn -0.9659 -0.2392 0.0995
vn -0.8977 -0.2420 0.3682
vn -0.4807 -0.2247 0.8476
vn -0.2794 -0.0510 0.9588
vn -0.8580 -0.3220 0.4001
vn -0.6937 -0.6696 0.2652
vn 0.0017 -1.0000 -0.0041
vn -0.5663 -0.8231 -0.0417
vn 0.0295 -0.9996 -0.0000
vn 0.0260 0.9996 0.0119
vn -0.1743 0.0459 0.9836
vn -0.3739 -0.1808 0.9097
vn -0.1036 -0.0338 0.9940
vn -0.9078 -0.4064 -0.1038
vn -0.2471 -0.5236 0.8153
vn 0.2062 -0.9727 0.1070
vn 0.4055 -0.6354 0.6571
vn -0.6760 -0.7216 0.1494
vn -0.2561 -0.2075 0.9441
vn 0.1889 -0.9743 0.1223
vn 0.6422 -0.3868 0.6617
vn 0.6405 -0.4905 0.5909
vn -0.3184 -0.0013 0.9480
vn 0.5875 -0.7818 -0.2088
vn -0.8462 -0.5105 -0.1525
vn 0.5904 -0.8071 -0.0034
vn -0.8998 -0.3749 0.2232
vn 0.7099 -0.3929 0.5845
vn -0.7216 0.0914 0.6863
vn 0.3282 -0.8979 -0.2934
vn -0.9541 -0.2133 0.2103
vn -0.9935 -0.0968 0.0603
vn -0.8188 -0.0798 0.5685
vn -0.9952 -0.0970 -0.0103
vn -0.9935 -0.0968 -0.0593
vn -0.2083 -0.7341 -0.6464
vn -0.2388 -0.8915 -0.3849
vn -0.3845 0.3843 0.8393
vn 0.3779 -0.7728 0.5099
vn -0.6462 0.1730 0.7433
vn 0.3776 -0.7732 0.5096
vn -0.5162 -0.0503 0.8550
vn -0.5147 -0.0502 0.8559
vn -0.9170 -0.3205 -0.2373
vn -0.9991 -0.0358 0.0222
vn -0.8339 -0.0112 -0.5518
vn -0.6001 0.6397 0.4803
vn -0.1768 -0.5895 -0.7882
vn -0.2450 -0.9695 -0.0016
vn -0.4817 -0.0330 0.8757
vn -0.4658 -0.7072 0.5319
vn -0.2180 -0.7814 -0.5847
vn -0.6038 0.6089 0.5145
vn -0.9151 -0.3496 -0.2011
vn -0.0540 -0.8716 -0.4872
vn -0.1299 -0.7420 -0.6577
vn -0.1582 0.0512 0.9861
vn 0.3042 -0.5771 0.7579
vn -0.2027 -0.1588 0.9663
vn 0.1806 -0.9807 -0.0752
vn -0.9091 -0.4122 -0.0604
vn 0.3210 -0.9441 -0.0753
vn -0.8132 -0.5678 0.1278
vn 0.4738 -0.6463 0.5983
vn -0.7218 -0.2177 0.6570
vn -0.8519 -0.5215 0.0477
vn -0.9351 -0.0911 0.3424
vn -0.2083 -0.7340 -0.6464
vn -0.6543 -0.7493 0.1019
vn -0.7139 0.3351 0.6148
vn 0.1225 -0.8454 0.5199
vn -0.5147 -0.0501 0.8559
vn -0.5396 0.8130 0.2187
vn -0.0540 -0.8716 -0.4873
vt 7.545139 18.072210
vt 6.586745 20.850475
vt 6.248305 18.582848
vt 3.898192 18.925594
vt 1.727262 21.419437
vt 1.532805 19.135332
vt 0.153444 18.938171
vt -1.838956 -11.663515
vt -4.681783 -9.093321
vt -6.030632 -11.451092
vt -1.602422 -9.394222
vt -2.764114 -6.177377
vt -1.276540 -6.332973
vt -1.754118 -2.642715
vt -0.789203 -2.786829
vt -1.248911 1.041572
vt 0.168227 4.563350
vt -0.304345 0.914333
vt 0.594180 7.939326
vt -0.774762 4.699960
vt 0.962262 10.815840
vt -0.345381 8.099191
vt 1.316225 12.946384
vt 0.024577 11.006475
vt 0.840934 14.817963
vt 0.408711 13.191280
vt 2.071451 16.193653
vt 1.740425 14.609165
vt 2.047472 17.467390
vt 1.326309 16.524105
vt 1.243757 17.071150
vt 0.492586 -9.655533
vt 0.218775 -12.003944
vt 0.858218 -6.590663
vt 1.284317 -3.057223
vt 1.731510 0.656957
vt 2.570593 7.676286
vt 2.169540 4.312831
vt 2.909442 10.529959
vt 3.154710 12.602615
vt 3.540752 15.878376
vt 3.359900 14.341526
vt 3.725038 17.448101
vt 2.289057 -12.146692
vt 2.585291 -9.892801
vt 2.991196 -6.848086
vt 3.771006 0.424621
vt 3.362856 -3.288223
vt 4.174153 4.084473
vt 4.554159 7.468090
vt 4.870121 10.352589
vt 4.997744 14.225338
vt 5.023310 12.508343
vt 5.043502 15.844410
vt 5.361866 17.078606
vt 5.625282 -10.324139
vt 6.365019 -12.899246
vt 4.469758 -7.052019
vt 4.334774 -3.378266
vt 4.719621 0.324392
vt 5.123542 3.994911
vt 5.505734 7.402973
vt 5.827150 10.318693
vt 5.921885 14.219378
vt 5.963705 12.535002
vt 5.845500 15.993324
vt 6.052502 16.506987
vt 0.118076 -12.891184
vt -5.500976 -15.490038
vt -0.152308 -15.409458
vt 6.017032 -17.202597
vt 7.775257 -12.805231
vt -6.692570 -15.849705
vt 4.979953 -16.625248
vt -0.395274 -17.764772
vt 1.284806 -19.951849
vt 3.537107 -18.661196
vt -4.434190 -17.870275
vt 4.244550 -19.471016
vt -0.568222 -19.527567
vt -1.271829 -19.845018
vt -0.585973 -19.830845
vt -2.440045 -19.644035
vt 1.470454 -21.066759
vt -5.375598 -18.598576
vt -1.289409 -20.556822
vt 0.049653 -20.661566
vt -2.822347 -20.721281
vt 0.084397 -19.946934
vt 7.775257 20.693577
vt 4.265972 22.066759
vt 0.534899 21.541254
vt -7.422906 -11.024586
vt 1.417426 -2.186652
vt -0.028199 0.756380
vt -0.972624 -1.480158
vt -0.206364 3.298962
vt -0.802014 3.805056
vt -0.774383 3.155398
vt -0.497419 4.089737
vt -0.397533 3.787580
vt -0.053677 3.859180
vt 0.168763 3.400829
vt -0.839067 4.121128
vt -0.123496 4.269651
vt -0.568598 4.896824
vt -0.804320 5.019989
vt 0.238396 2.456530
vt 1.041834 2.920656
vt -0.454714 2.341525
vt 1.340983 1.379930
vt 0.047811 1.084735
vt 0.496008 1.227527
vt 1.261833 0.929636
vt 0.295876 0.688078
vt 0.653903 0.824929
vt 0.669577 -0.206583
vt 0.641351 -1.103779
vt 0.848701 -0.066833
vt 0.124619 -0.877278
vt 0.483761 -1.060711
vt -0.590753 1.049082
vt -0.466782 0.729802
vt -1.496083 3.569183
vt -1.286782 2.971269
vt -0.962278 2.177742
vt 0.773118 -1.920430
vt 0.909607 -1.084535
vt 1.307126 -0.097858
vt 0.482812 0.171868
vt 0.787547 0.290092
vt 1.297668 0.401796
vt 0.060728 -0.226213
vt -0.193955 0.241086
vt 0.452338 -1.997072
vt 0.214646 -1.954100
vt 0.126599 -2.660797
vt 0.033053 -4.122152
vt 0.275018 -2.684292
vt -0.514804 -2.494184
vt -0.288486 -4.057423
vt 0.516640 -2.707071
vt 0.440148 -4.292389
vt 0.496648 -2.199566
vt -0.310575 -1.860312
vt 0.180247 -2.287086
vt 0.305339 -2.296980
vt 2.248775 -1.564752
vt 2.726870 -0.525011
vt 1.417426 3.186652
vt 0.206963 4.586012
vt -0.437415 -1.553927
vt -1.496083 -4.130383
vt 2.197897 -2.436483
vt 0.177722 5.581340
vt -2.874469 -1.982219
vt 2.763665 3.855399
vt 1.894541 -4.926124
vt 2.763667 -4.494171
vt -2.906852 3.781778
vt 1.409836 -0.486295
vt 1.582405 -0.264677
vt 0.498490 0.503924
vt -0.432881 1.537382
vt -0.601737 1.304105
vt 1.324693 -0.602192
vt -0.208245 1.665028
vt 0.405871 -0.870811
vt 0.715002 -0.876301
vt 0.033549 1.781164
vt 0.177622 -0.833881
vt 0.254332 1.862652
vt -0.089205 -0.747039
vt 0.561235 1.862652
vt -0.335160 -0.601360
vt 0.826831 1.824870
vt -0.506222 -0.429503
vt 1.222221 -0.691421
vt 1.030462 1.688292
vt -0.667303 -0.214982
vt 1.310841 1.599462
vt -0.833353 0.058062
vt 1.854615 0.704336
vt 1.741296 0.916343
vt 1.476690 1.487883
vt -0.850162 0.286653
vt 1.831227 0.402819
vt 1.671756 1.205971
vt -0.864926 0.554507
vt 1.772299 0.098269
vt -0.866838 0.912570
vt 1.742701 -0.082220
vt -0.738267 1.073201
s 0
g lavaMesh.old_LavaMat
usemtl LavaMat
f 19/1/1 4/2/1 31/3/1
f 4/2/2 43/4/2 31/3/2
f 43/4/3 8/5/3 55/6/3
f 8/5/4 67/7/4 55/6/4
f 7/8/5 78/9/5 9/10/5
f 66/11/6 77/12/6 78/9/6
f 65/13/7 76/14/7 77/12/7
f 64/15/8 75/16/8 76/14/8
f 62/17/8 75/16/8 63/18/8
f 61/19/8 74/20/8 62/17/8
f 60/21/8 73/22/8 61/19/8
f 59/23/8 72/24/8 60/21/8
f 59/23/8 70/25/8 71/26/8
f 57/27/8 70/25/8 58/28/8
f 56/29/8 69/30/8 57/27/8
f 56/29/9 67/7/9 68/31/9
f 54/32/10 7/8/10 5/33/10
f 53/34/11 66/11/11 54/32/11
f 52/35/12 65/13/12 53/34/12
f 52/35/13 63/18/13 64/15/13
f 51/36/14 62/17/14 63/18/14
f 49/37/15 62/17/15 50/38/15
f 48/39/16 61/19/16 49/37/16
f 47/40/17 60/21/17 48/39/17
f 47/40/18 58/28/18 59/23/18
f 45/41/19 58/28/19 46/42/19
f 44/43/20 57/27/20 45/41/20
f 43/4/21 56/29/21 44/43/21
f 3/44/22 54/32/22 5/33/22
f 42/45/23 53/34/23 54/32/23
f 41/46/24 52/35/24 53/34/24
f 39/47/25 52/35/25 40/48/25
f 38/49/26 51/36/26 39/47/26
f 38/49/27 49/37/27 50/38/27
f 37/50/28 48/39/28 49/37/28
f 36/51/29 47/40/29 48/39/29
f 34/52/30 47/40/30 35/53/30
f 34/52/31 45/41/31 46/42/31
f 33/54/32 44/43/32 45/41/32
f 32/55/33 43/4/33 44/43/33
f 30/56/34 3/44/34 1/57/34
f 29/58/35 42/45/35 30/56/35
f 28/59/36 41/46/36 29/58/36
f 27/60/37 40/48/37 28/59/37
f 27/60/37 38/49/37 39/47/37
f 26/61/37 37/50/37 38/49/37
f 25/62/37 36/51/37 37/50/37
f 24/63/37 35/53/37 36/51/37
f 22/64/37 35/53/37 23/65/37
f 22/64/37 33/54/37 34/52/37
f 21/66/38 32/55/38 33/54/38
f 19/1/39 32/55/39 20/67/39
f 17/68/40 13/69/40 12/70/40
f 1/57/41 15/71/41 18/72/41
f 9/10/42 14/73/42 13/69/42
f 7/8/43 17/68/43 5/33/43
f 3/44/44 17/68/44 1/57/44
f 17/68/40 11/74/40 1/57/40
f 81/75/40 85/76/40 80/77/40
f 12/70/40 82/78/40 81/75/40
f 15/71/45 80/77/45 79/79/45
f 14/73/46 82/78/46 13/69/46
f 12/70/40 80/77/40 11/74/40
f 86/80/40 92/81/40 91/82/40
f 81/75/40 87/83/40 86/80/40
f 80/77/47 84/84/47 79/79/47
f 83/85/48 87/83/48 82/78/48
f 91/82/49 92/81/49 93/86/49
f 85/76/50 89/87/50 84/84/50
f 88/88/51 92/81/51 87/83/51
f 86/80/40 90/89/40 85/76/40
f 88/88/52 89/87/52 93/86/52
f 19/1/53 2/90/53 4/2/53
f 4/2/54 6/91/54 43/4/54
f 43/4/55 6/91/55 8/5/55
f 8/5/4 10/92/4 67/7/4
f 7/8/56 66/11/56 78/9/56
f 66/11/57 65/13/57 77/12/57
f 65/13/8 64/15/8 76/14/8
f 64/15/8 63/18/8 75/16/8
f 62/17/8 74/20/8 75/16/8
f 61/19/8 73/22/8 74/20/8
f 60/21/8 72/24/8 73/22/8
f 59/23/8 71/26/8 72/24/8
f 59/23/8 58/28/8 70/25/8
f 57/27/8 69/30/8 70/25/8
f 56/29/8 68/31/8 69/30/8
f 56/29/9 55/6/9 67/7/9
f 54/32/58 66/11/58 7/8/58
f 53/34/59 65/13/59 66/11/59
f 52/35/60 64/15/60 65/13/60
f 52/35/61 51/36/61 63/18/61
f 51/36/62 50/38/62 62/17/62
f 49/37/63 61/19/63 62/17/63
f 48/39/64 60/21/64 61/19/64
f 47/40/65 59/23/65 60/21/65
f 47/40/66 46/42/66 58/28/66
f 45/41/67 57/27/67 58/28/67
f 44/43/68 56/29/68 57/27/68
f 43/4/69 55/6/69 56/29/69
f 3/44/70 42/45/70 54/32/70
f 42/45/71 41/46/71 53/34/71
f 41/46/72 40/48/72 52/35/72
f 39/47/73 51/36/73 52/35/73
f 38/49/74 50/38/74 51/36/74
f 38/49/75 37/50/75 49/37/75
f 37/50/76 36/51/76 48/39/76
f 36/51/77 35/53/77 47/40/77
f 34/52/78 46/42/78 47/40/78
f 34/52/79 33/54/79 45/41/79
f 33/54/80 32/55/80 44/43/80
f 32/55/81 31/3/81 43/4/81
f 30/56/82 42/45/82 3/44/82
f 29/58/83 41/46/83 42/45/83
f 28/59/37 40/48/37 41/46/37
f 27/60/37 39/47/37 40/48/37
f 27/60/37 26/61/37 38/49/37
f 26/61/37 25/62/37 37/50/37
f 25/62/37 24/63/37 36/51/37
f 24/63/37 23/65/37 35/53/37
f 22/64/37 34/52/37 35/53/37
f 22/64/37 21/66/37 33/54/37
f 21/66/84 20/67/84 32/55/84
f 19/1/85 31/3/85 32/55/85
f 17/68/40 9/10/40 13/69/40
f 1/57/86 11/74/86 15/71/86
f 9/10/87 16/93/87 14/73/87
f 7/8/88 9/10/88 17/68/88
f 3/44/89 5/33/89 17/68/89
f 17/68/40 12/70/40 11/74/40
f 81/75/40 86/80/40 85/76/40
f 12/70/40 13/69/40 82/78/40
f 15/71/45 11/74/45 80/77/45
f 14/73/46 83/85/46 82/78/46
f 12/70/40 81/75/40 80/77/40
f 86/80/40 87/83/40 92/81/40
f 81/75/40 82/78/40 87/83/40
f 80/77/47 85/76/47 84/84/47
f 83/85/48 88/88/48 87/83/48
f 93/86/49 89/87/49 91/82/49
f 89/87/49 90/89/49 91/82/49
f 85/76/50 90/89/50 89/87/50
f 88/88/51 93/86/51 92/81/51
f 86/80/40 91/82/40 90/89/40
f 88/88/52 84/84/52 89/87/52
f 95/94/90 94/95/90 96/96/90
f 103/97/91 105/98/91 106/99/91
f 101/100/92 105/98/92 102/101/92
f 99/102/93 103/97/93 100/103/93
f 99/102/94 101/100/94 102/101/94
f 103/97/95 102/101/95 105/98/95
f 101/100/96 104/104/96 105/98/96
f 99/102/97 102/101/97 103/97/97
f 99/102/98 98/105/98 101/100/98
f 98/105/99 108/106/99 101/100/99
f 104/104/100 108/106/100 109/107/100
f 100/103/101 111/108/101 110/109/101
f 103/97/102 112/110/102 111/108/102
f 111/108/103 113/111/103 110/109/103
f 111/108/104 115/112/104 114/113/104
f 114/113/105 116/114/105 113/111/105
f 114/113/106 118/115/106 117/116/106
f 136/117/107 132/118/107 135/119/107
f 136/117/108 130/120/108 131/121/108
f 112/110/109 125/122/109 115/112/109
f 115/112/110 126/123/110 118/115/110
f 106/99/111 122/124/111 123/125/111
f 106/99/112 124/126/112 112/110/112
f 132/118/113 121/127/113 133/128/113
f 134/129/114 132/118/114 133/128/114
f 139/130/115 135/119/115 140/131/115
f 140/131/116 134/129/116 141/132/116
f 118/115/117 140/131/117 117/116/117
f 117/116/118 141/132/118 116/114/118
f 139/130/119 137/133/119 136/117/119
f 118/115/120 138/134/120 139/130/120
f 131/121/121 127/135/121 132/118/121
f 130/120/122 128/136/122 131/121/122
f 148/137/123 119/138/123 150/139/123
f 149/140/124 142/141/124 148/137/124
f 151/142/125 119/138/125 120/143/125
f 127/135/126 147/144/126 121/127/126
f 128/136/127 146/145/127 145/146/127
f 128/136/128 144/147/128 127/135/128
f 144/147/129 151/142/129 147/144/129
f 145/146/130 149/140/130 148/137/130
f 144/147/131 148/137/131 150/139/131
f 134/129/132 153/148/132 154/149/132
f 121/127/133 153/148/133 133/128/133
f 95/94/134 97/150/134 94/95/134
f 98/105/135 107/151/135 108/106/135
f 104/104/136 101/100/136 108/106/136
f 100/103/137 103/97/137 111/108/137
f 103/97/138 106/99/138 112/110/138
f 111/108/139 114/113/139 113/111/139
f 111/108/140 112/110/140 115/112/140
f 114/113/141 117/116/141 116/114/141
f 114/113/142 115/112/142 118/115/142
f 136/117/143 131/121/143 132/118/143
f 136/117/144 137/133/144 130/120/144
f 112/110/109 124/126/109 125/122/109
f 115/112/110 125/122/110 126/123/110
f 106/99/111 105/98/111 122/124/111
f 106/99/112 123/125/112 124/126/112
f 132/118/145 127/135/145 121/127/145
f 134/129/146 135/119/146 132/118/146
f 139/130/147 136/117/147 135/119/147
f 140/131/148 135/119/148 134/129/148
f 118/115/117 139/130/117 140/131/117
f 117/116/118 140/131/118 141/132/118
f 139/130/119 138/134/119 137/133/119
f 118/115/149 126/123/149 138/134/149
f 131/121/121 128/136/121 127/135/121
f 130/120/150 129/152/150 128/136/150
f 148/137/123 142/141/123 119/138/123
f 149/140/124 143/153/124 142/141/124
f 151/142/125 150/139/125 119/138/125
f 127/135/126 144/147/126 147/144/126
f 128/136/127 129/152/127 146/145/127
f 128/136/128 145/146/128 144/147/128
f 144/147/129 150/139/129 151/142/129
f 145/146/130 146/145/130 149/140/130
f 144/147/131 145/146/131 148/137/131
f 134/129/151 133/128/151 153/148/151
f 121/127/133 152/154/133 153/148/133
f 158/155/40 157/156/40 156/157/40
f 156/157/40 160/158/40 159/159/40
f 158/155/40 155/160/40 157/156/40
f 156/157/40 157/156/40 160/158/40
f 167/161/40 166/162/40 193/163/40
f 182/164/40 181/165/40 193/163/40
f 192/166/40 167/161/40 193/163/40
f 183/167/40 182/164/40 193/163/40
f 170/168/40 169/169/40 193/163/40
f 184/170/40 183/167/40 193/163/40
f 171/171/40 170/168/40 193/163/40
f 185/172/40 184/170/40 193/163/40
f 172/173/40 171/171/40 193/163/40
f 186/174/40 185/172/40 193/163/40
f 173/175/40 172/173/40 193/163/40
f 187/176/40 186/174/40 193/163/40
f 174/177/40 173/175/40 193/163/40
f 169/169/40 168/178/40 193/163/40
f 188/179/40 187/176/40 193/163/40
f 175/180/40 174/177/40 193/163/40
f 168/178/40 192/166/40 193/163/40
f 189/181/40 188/179/40 193/163/40
f 176/182/40 175/180/40 193/163/40
f 162/183/40 161/184/40 193/163/40
f 190/185/40 189/181/40 193/163/40
f 177/186/40 176/182/40 193/163/40
f 163/187/40 162/183/40 193/163/40
f 191/188/40 190/185/40 193/163/40
f 178/189/40 177/186/40 193/163/40
f 164/190/40 163/187/40 193/163/40
f 161/184/40 191/188/40 193/163/40
f 179/191/40 178/189/40 193/163/40
f 165/192/40 164/190/40 193/163/40
f 180/193/40 179/191/40 193/163/40
f 166/162/40 165/192/40 193/163/40
f 181/165/40 180/193/40 193/163/40
