# Blender 5.0.1
# www.blender.org
mtllib model.mtl
o old.mainIsland.mushroom.mesh
v -42.882439 3.655384 21.390150
v -42.334106 4.605122 19.111853
v -51.845284 3.655384 21.390150
v -52.393623 4.605122 19.111853
v -56.326729 -4.106655 21.390150
v -57.423393 -4.106655 19.111853
v -51.845284 -11.868695 21.390150
v -52.393623 -12.818431 19.111853
v -42.882439 -11.868695 21.390150
v -42.334106 -12.818431 19.111853
v -38.400993 -4.106655 21.390150
v -37.304329 -4.106655 19.111853
v -42.531395 4.263378 17.604223
v -52.196373 4.263378 17.604223
v -57.028854 -4.106667 17.604223
v -52.196373 -12.476717 17.604223
v -42.531395 -12.476717 17.604223
v -37.698914 -4.106667 17.604223
v -45.081108 -0.152802 14.458155
v -49.646652 -0.152802 14.458155
v -51.929420 -4.106661 14.458155
v -49.646652 -8.060517 14.458155
v -45.081108 -8.060517 14.458155
v -42.798340 -4.106661 14.458155
v -45.482948 -0.848803 6.509712
v -49.244820 -0.848803 6.509712
v -51.125755 -4.106655 6.509712
v -49.244820 -7.364509 6.509712
v -45.482948 -7.364509 6.509712
v -43.602013 -4.106655 6.509712
v -45.440010 -4.106655 11.902590
v -46.401955 -2.440529 11.902590
v -49.287788 -4.106655 11.902590
v -48.325829 -5.772782 11.902590
v -46.401955 -5.772782 11.902590
v -48.325829 -2.440529 11.902590
v -176.236404 24.804573 46.701771
v -175.489639 26.098003 44.423473
v -182.891037 24.804573 46.701771
v -183.637802 26.098003 44.423473
v -186.218369 19.041508 46.701771
v -187.711899 19.041508 44.423473
v -182.891037 13.278439 46.701771
v -183.637802 11.985008 44.423473
v -176.236404 13.278439 46.701771
v -175.489639 11.985008 44.423473
v -172.909073 19.041508 46.701771
v -171.415543 19.041508 44.423473
v -175.159851 26.669193 39.679794
v -183.967621 26.669193 39.679794
v -188.371490 19.041504 39.679794
v -183.967621 11.413811 39.679794
v -175.159851 11.413811 39.679794
v -170.755981 19.041504 39.679794
v -177.483795 22.644035 36.679512
v -181.643677 22.644035 36.679512
v -183.723602 19.041504 36.679512
v -181.643677 15.438972 36.679512
v -177.483795 15.438972 36.679512
v -175.403870 19.041504 36.679512
v -178.841949 20.291664 17.169481
v -180.285522 20.291664 17.169481
v -181.007309 19.041508 17.169481
v -180.285522 17.791348 17.169481
v -178.841949 17.791348 17.169481
v -178.120163 19.041508 17.169481
v -178.568008 20.766148 4.552031
v -180.559464 20.766148 4.552031
v -181.555191 19.041508 4.552031
v -180.559464 17.316868 4.552031
v -178.568008 17.316868 4.552031
v -177.572281 19.041508 4.552031
v -152.106308 55.965824 32.744808
v -151.287277 57.384403 30.466511
v -158.760941 55.965824 32.744808
v -159.579971 57.384403 30.466511
v -162.088272 50.202747 32.744808
v -163.726303 50.202747 30.466511
v -158.760941 44.439678 32.744808
v -159.579971 43.021095 30.466511
v -152.106308 44.439678 32.744808
v -151.287277 43.021095 30.466511
v -148.778976 50.202747 32.744808
v -147.140915 50.202747 30.466511
v -151.215927 57.507969 26.523102
v -159.651352 57.507969 26.523102
v -163.869034 50.202747 26.523102
v -159.651352 42.897507 26.523102
v -151.215927 42.897507 26.523102
v -146.998215 50.202747 26.523102
v -153.738754 53.138371 23.259668
v -157.128525 53.138371 23.259668
v -158.823410 50.202747 23.259668
v -157.128525 47.267132 23.259668
v -153.738754 47.267132 23.259668
v -152.043869 50.202747 23.259668
v -154.437912 51.927387 3.212517
v -156.429367 51.927387 3.212517
v -157.425095 50.202747 3.212517
v -156.429367 48.478107 3.212517
v -154.437912 48.478107 3.212517
v -153.442184 50.202747 3.212517
v -177.600449 19.041504 32.339832
v -178.582092 20.741760 32.339832
v -181.527039 19.041504 32.339832
v -180.545395 17.341251 32.339832
v -178.582092 17.341251 32.339832
v -180.545395 20.741760 32.339832
v -153.637924 50.202747 19.297695
v -154.535782 51.757877 19.297695
v -157.229355 50.202747 19.297695
v -156.331497 48.647633 19.297695
v -154.535782 48.647633 19.297695
v -156.331497 51.757877 19.297695
v -165.938019 -37.739906 36.984951
v -165.137726 -36.353756 34.706654
v -172.592651 -37.739906 36.984951
v -173.392944 -36.353756 34.706654
v -175.919983 -43.502975 36.984951
v -177.520569 -43.502975 34.706654
v -172.592651 -49.266045 36.984951
v -173.392944 -50.652191 34.706654
v -165.938019 -49.266045 36.984951
v -165.137726 -50.652191 34.706654
v -162.610687 -43.502975 36.984951
v -161.010086 -43.502975 34.706654
v -164.861465 -35.875286 29.962975
v -173.669235 -35.875286 29.962975
v -178.073105 -43.502975 29.962975
v -173.669235 -51.130669 29.962975
v -164.861465 -51.130669 29.962975
v -160.457596 -43.502975 29.962975
v -167.185410 -39.900444 26.962692
v -171.345291 -39.900444 26.962692
v -173.425217 -43.502975 26.962692
v -171.345291 -47.105507 26.962692
v -167.185410 -47.105507 26.962692
v -165.105484 -43.502975 26.962692
v -168.543564 -42.252815 7.452660
v -169.987137 -42.252815 7.452660
v -170.708923 -43.502975 7.452660
v -169.987137 -44.753132 7.452660
v -168.543564 -44.753132 7.452660
v -167.821777 -43.502975 7.452660
v -168.269623 -41.778336 -0.448097
v -170.261078 -41.778336 -0.448097
v -171.256805 -43.502975 -0.448097
v -170.261078 -45.227615 -0.448097
v -168.269623 -45.227615 -0.448097
v -167.273895 -43.502975 -0.448097
v -167.302063 -43.502975 22.623013
v -168.283707 -41.802723 22.623013
v -171.228653 -43.502975 22.623013
v -170.247009 -45.203228 22.623013
v -168.283707 -45.203228 22.623013
v -170.247009 -41.802723 22.623013
v -135.365921 -53.477451 44.933853
v -134.477722 -51.935219 42.655556
v -142.020554 -53.477451 44.933853
v -142.914337 -51.935219 42.655556
v -145.347885 -59.240520 44.933853
v -147.132660 -59.241531 42.655556
v -142.020554 -65.003586 44.933853
v -142.914337 -66.547836 42.655556
v -135.303391 -64.980988 44.933857
v -134.398438 -66.519188 42.655560
v -132.038589 -59.240520 44.933853
v -130.259384 -59.241531 42.655556
v -134.289368 -51.612831 37.911877
v -143.097137 -51.612831 37.911877
v -147.501007 -59.240520 37.911877
v -143.097137 -66.868210 37.911877
v -134.289368 -66.868210 37.911877
v -129.885498 -59.240520 37.911877
v -136.613312 -55.637989 34.911594
v -140.773193 -55.637989 34.911594
v -142.853119 -59.240520 34.911594
v -140.773193 -62.843052 34.911594
v -136.613312 -62.843052 34.911594
v -134.533386 -59.240520 34.911594
v -137.971466 -57.990360 15.401564
v -139.415039 -57.990360 15.401564
v -140.136826 -59.240520 15.401564
v -139.415039 -60.490677 15.401564
v -137.971466 -60.490677 15.401564
v -137.249680 -59.240520 15.401564
v -137.697525 -57.515881 2.784113
v -139.688980 -57.515881 2.784113
v -140.684708 -59.240520 2.784113
v -139.688980 -60.965160 2.784113
v -137.697525 -60.965160 2.784113
v -136.701797 -59.240520 2.784113
v -136.729965 -59.240520 30.571915
v -137.711609 -57.540268 30.571915
v -140.656555 -59.240520 30.571915
v -139.674911 -60.940773 30.571915
v -137.711609 -60.940773 30.571915
v -139.674911 -57.540268 30.571915
v -95.187943 -54.197853 37.002182
v -94.311295 -52.692085 34.723881
v -101.904984 -54.247562 37.002186
v -102.770844 -52.754688 34.723888
v -105.232315 -60.010632 37.002186
v -106.961319 -60.012779 34.723888
v -101.904984 -65.773697 37.002186
v -102.770844 -67.270866 34.723888
v -95.278870 -65.806618 36.974792
v -94.389893 -67.270866 34.723888
v -91.951538 -60.043552 36.974792
v -90.199402 -60.012779 34.723888
v -94.173798 -52.382942 29.980211
v -102.981567 -52.382942 29.980211
v -107.385437 -60.010632 29.980211
v -102.981567 -67.638321 29.980211
v -94.173798 -67.638321 29.980211
v -89.769928 -60.010632 29.980211
v -96.497742 -56.408100 26.979929
v -100.657623 -56.408100 26.979929
v -102.737549 -60.010632 26.979929
v -100.657623 -63.613163 26.979929
v -96.497742 -63.613163 26.979929
v -94.417816 -60.010632 26.979929
v -97.855896 -58.760471 7.469898
v -99.299469 -58.760471 7.469898
v -100.021255 -60.010632 7.469898
v -99.299469 -61.260788 7.469898
v -97.855896 -61.260788 7.469898
v -97.134109 -60.010632 7.469898
v -97.581955 -58.285992 2.996651
v -99.573410 -58.285992 2.996651
v -100.569138 -60.010632 2.996651
v -99.573410 -61.735271 2.996651
v -97.581955 -61.735271 2.996651
v -96.586227 -60.010632 2.996651
v -96.614395 -60.010632 22.640249
v -97.596039 -58.310379 22.640249
v -100.540985 -60.010632 22.640249
v -99.559341 -61.710884 22.640249
v -97.596039 -61.710884 22.640249
v -99.559341 -58.310379 22.640249
v -160.074249 20.027084 53.102974
v -159.327484 21.320511 50.824677
v -166.728882 20.027084 53.102974
v -167.475647 21.320511 50.824677
v -170.056213 14.264017 53.102974
v -171.549744 14.264017 50.824677
v -166.728882 8.500946 53.102974
v -167.475647 7.207518 50.824677
v -160.074249 8.500946 53.102974
v -159.327484 7.207518 50.824677
v -156.746918 14.264017 53.102974
v -155.253387 14.264017 50.824677
v -158.997696 21.891701 46.081001
v -167.805466 21.891701 46.081001
v -172.209335 14.264013 46.081001
v -167.805466 6.636320 46.081001
v -158.997696 6.636320 46.081001
v -154.593826 14.264013 46.081001
v -161.321640 17.866545 43.080719
v -165.481522 17.866545 43.080719
v -167.561447 14.264013 43.080719
v -165.481522 10.661484 43.080719
v -161.321640 10.661484 43.080719
v -159.241714 14.264013 43.080719
v -162.679794 15.514174 23.570688
v -164.123367 15.514174 23.570688
v -164.845154 14.264017 23.570688
v -164.123367 13.013857 23.570688
v -162.679794 13.013857 23.570688
v -161.958008 14.264017 23.570688
v -162.405853 15.988657 10.953237
v -164.397308 15.988657 10.953237
v -165.393036 14.264017 10.953237
v -164.397308 12.539377 10.953237
v -162.405853 12.539377 10.953237
v -161.410126 14.264017 10.953237
v -161.438293 14.264013 38.741035
v -162.419937 15.964270 38.741035
v -165.364883 14.264013 38.741035
v -164.383240 12.563761 38.741035
v -162.419937 12.563761 38.741035
v -164.383240 15.964270 38.741035
v -135.365921 -65.003586 44.933853
v -95.250351 -54.247562 37.002186
v -95.250351 -65.773697 37.002186
v -91.923019 -60.010632 37.002186
v -911.853088 225.506454 653.368835
v -899.939758 245.955917 636.127136
v -921.772522 225.433090 653.368835
v -933.492004 245.707687 636.127258
v -926.685974 216.922592 653.368835
v -950.112244 216.920792 636.127258
v -921.772522 208.412094 653.368835
v -933.492004 188.133896 636.127258
v -911.987488 208.363480 653.291565
v -900.251648 188.133896 636.127258
v -907.073914 216.873978 653.291565
v -883.631409 216.920792 636.127258
v -881.472595 278.223236 600.137512
v -952.249695 278.223236 600.137512
v -987.637878 216.929245 600.137512
v -952.249695 155.635330 600.137512
v -881.472595 155.635330 600.137512
v -846.084412 216.929245 600.137512
v -898.034851 249.537521 595.391418
v -935.687439 249.537521 595.391418
v -954.514099 216.929214 595.391418
v -935.687439 184.321091 595.391418
v -898.034851 184.321091 595.391418
v -879.208069 216.929214 595.391418
v -912.193909 225.021988 443.926727
v -921.542542 225.021988 443.926727
v -926.217102 216.925735 443.926727
v -921.542542 208.829575 443.926727
v -912.193909 208.829575 443.926727
v -907.519592 216.925735 443.926727
v -910.419739 228.094742 412.627838
v -923.316589 228.094742 412.627838
v -929.765076 216.925735 412.627838
v -923.316589 205.756729 412.627838
v -910.419739 205.756729 412.627838
v -903.971130 216.925735 412.627838
v -904.153870 216.925735 550.072083
v -910.510925 227.936813 550.072083
v -929.582825 216.925735 550.072083
v -923.225769 205.914627 550.072083
v -910.510925 205.914627 550.072083
v -923.225769 227.936813 550.072083
vn 0.7994 -0.4615 0.3848
vn -0.0000 -0.9753 -0.2210
vn -0.7993 -0.4615 0.3848
vn -0.7994 0.4615 0.3848
vn -0.0000 0.9230 0.3848
vn 0.7994 0.4615 0.3848
vn -0.0000 -0.9230 0.3848
vn -0.7994 -0.4615 0.3848
vn -0.0000 0.9753 -0.2211
vn -0.8446 -0.4876 -0.2210
vn 0.8446 -0.4876 -0.2211
vn 0.8446 0.4876 -0.2211
vn -0.8446 0.4876 -0.2210
vn 0.5025 0.2901 -0.8145
vn -0.5025 0.2901 -0.8145
vn 0.5025 -0.2901 -0.8145
vn -0.5025 -0.2901 -0.8145
vn -0.0000 0.5802 -0.8145
vn -0.0000 -0.5802 -0.8145
vn 0.8306 0.4795 0.2831
vn -0.8306 -0.4796 0.2831
vn -0.0000 -0.9591 0.2831
vn 0.8306 -0.4795 0.2831
vn -0.8306 0.4796 0.2831
vn -0.0000 0.9591 0.2831
vn -0.0000 0.7451 -0.6670
vn -0.6453 0.3725 -0.6670
vn 0.6452 -0.3725 -0.6670
vn -0.0000 -0.7451 -0.6670
vn -0.6452 -0.3725 -0.6670
vn 0.6452 0.3725 -0.6670
vn 0.7531 -0.4348 0.4937
vn -0.0000 -0.8696 0.4937
vn -0.7531 -0.4348 0.4937
vn -0.7531 0.4348 0.4937
vn -0.0000 0.8696 0.4937
vn 0.7531 0.4348 0.4937
vn -0.0000 0.9928 0.1195
vn -0.8598 -0.4964 0.1196
vn 0.8598 -0.4964 0.1195
vn 0.8598 0.4964 0.1195
vn -0.0000 -0.9928 0.1195
vn -0.8598 0.4964 0.1196
vn 0.5176 0.2988 -0.8018
vn -0.5176 0.2988 -0.8018
vn 0.5176 -0.2988 -0.8018
vn -0.5176 -0.2988 -0.8018
vn -0.0000 0.5976 -0.8018
vn -0.0000 -0.5976 -0.8018
vn 0.8656 0.4998 -0.0297
vn -0.8656 -0.4998 -0.0297
vn -0.0000 -0.9996 -0.0297
vn 0.8656 -0.4998 -0.0297
vn -0.8656 0.4998 -0.0297
vn -0.0000 0.9996 -0.0297
vn 0.8654 -0.4996 0.0376
vn -0.8654 0.4996 0.0376
vn -0.0000 0.9993 0.0376
vn 0.8654 0.4997 0.0376
vn -0.8654 -0.4996 0.0376
vn -0.0000 -0.9993 0.0376
vn 0.7352 -0.4244 0.5286
vn -0.0000 -0.8489 0.5286
vn -0.7352 -0.4244 0.5286
vn -0.7352 0.4244 0.5286
vn -0.0000 0.8489 0.5286
vn 0.7352 0.4244 0.5286
vn -0.7352 -0.4245 0.5286
vn -0.0000 0.9995 0.0313
vn -0.8656 -0.4998 0.0313
vn 0.8656 -0.4998 0.0313
vn 0.8656 0.4998 0.0313
vn -0.0000 -0.9995 0.0313
vn -0.8656 0.4998 0.0313
vn 0.5182 0.2992 -0.8012
vn -0.5182 0.2992 -0.8012
vn 0.5182 -0.2992 -0.8012
vn -0.5182 -0.2992 -0.8012
vn -0.0000 0.5984 -0.8012
vn -0.0000 -0.5984 -0.8012
vn 0.8660 0.5000 0.0105
vn -0.8660 -0.5000 0.0105
vn -0.0000 -0.9999 0.0105
vn 0.8660 -0.5000 0.0105
vn -0.8660 0.5000 0.0105
vn -0.0000 0.9999 0.0105
vn -0.0000 0.9159 -0.4015
vn -0.7932 0.4579 -0.4015
vn 0.7932 -0.4579 -0.4015
vn -0.0000 -0.9159 -0.4015
vn -0.7932 -0.4579 -0.4015
vn 0.7932 0.4579 -0.4015
vn -0.0000 0.9443 -0.3290
vn -0.8178 0.4722 -0.3290
vn 0.8178 -0.4722 -0.3290
vn -0.0000 -0.9443 -0.3290
vn -0.8178 -0.4722 -0.3290
vn 0.8178 0.4722 -0.3290
vn -0.0000 -0.8543 0.5198
vn -0.7398 -0.4272 0.5198
vn -0.7398 0.4272 0.5198
vn -0.0000 0.8543 0.5198
vn 0.7398 0.4272 0.5198
vn -0.0000 0.9950 0.1004
vn -0.8617 -0.4975 0.1004
vn 0.8617 -0.4975 0.1004
vn 0.8617 0.4975 0.1004
vn -0.0000 -0.9950 0.1004
vn -0.8617 0.4975 0.1004
vn 0.8645 -0.4991 0.0599
vn -0.8645 0.4991 0.0599
vn -0.0000 0.9982 0.0599
vn 0.8645 0.4991 0.0599
vn -0.8645 -0.4991 0.0599
vn -0.0000 -0.9982 0.0599
vn 0.0028 -0.8283 0.5603
vn -0.7166 -0.4137 0.5615
vn -0.7167 0.4138 0.5613
vn -0.0000 0.8281 0.5606
vn 0.7174 0.4142 0.5601
vn -0.0000 0.9977 0.0678
vn -0.8641 -0.4989 0.0670
vn 0.8672 -0.4932 0.0682
vn 0.8640 0.4988 0.0682
vn 0.0034 -0.9973 0.0735
vn -0.8641 0.4989 0.0672
vn 0.8654 -0.4997 0.0376
vn -0.8654 0.4997 0.0376
vn -0.8654 -0.4997 0.0376
vn -0.0000 -0.8382 0.5453
vn -0.7236 -0.4177 0.5495
vn -0.7239 0.4179 0.5490
vn -0.0062 0.8353 0.5497
vn 0.7280 0.4089 0.5503
vn -0.0019 -0.8354 0.5497
vn 0.7217 0.3969 0.5672
vn -0.0000 0.9969 0.0781
vn -0.8635 -0.4985 0.0770
vn 0.8634 -0.4985 0.0779
vn 0.8646 0.4992 0.0576
vn -0.0000 -0.9970 0.0772
vn -0.8634 0.4985 0.0774
vn 0.8612 -0.4972 0.1055
vn -0.8612 0.4972 0.1055
vn -0.0000 0.9944 0.1055
vn 0.8612 0.4972 0.1055
vn -0.8612 -0.4972 0.1055
vn -0.0000 -0.9944 0.1055
vn 0.7204 -0.4159 0.5551
vn 0.7191 -0.4090 0.5618
vn 0.7398 -0.4272 0.5198
vn 0.8446 -0.4876 -0.2210
vn 0.8306 0.4796 0.2831
vn 0.8306 -0.4796 0.2831
vn -0.6452 0.3725 -0.6670
vn -0.6453 -0.3725 -0.6670
vn 0.8598 -0.4964 0.1196
vn 0.8654 0.4996 0.0376
vn 0.8646 -0.4992 0.0566
vn -0.0000 -0.9977 0.0674
vn -0.0074 0.9979 0.0648
vn 0.8692 0.4882 0.0789
vn -0.0000 -0.0000 1.0000
vn -0.0000 -0.6470 0.7625
vn -0.5608 -0.3238 0.7620
vn -0.5608 0.3238 0.7620
vn -0.0048 0.6462 0.7631
vn 0.5628 0.3161 0.7638
vn 0.0028 -0.6487 0.7610
vn 0.5623 0.3044 0.7688
vn -0.0000 0.7420 0.6704
vn -0.6428 -0.3711 0.6701
vn 0.6426 -0.3710 0.6703
vn 0.6461 0.3730 0.6659
vn -0.0000 -0.7422 0.6702
vn -0.6427 0.3711 0.6702
vn 0.1414 0.0816 -0.9866
vn -0.1414 0.0816 -0.9866
vn 0.1414 -0.0816 -0.9866
vn -0.1414 -0.0816 -0.9866
vn -0.0000 0.1632 -0.9866
vn -0.0000 -0.1632 -0.9866
vn 0.8657 0.4998 -0.0275
vn -0.8657 -0.4998 -0.0275
vn -0.0000 -0.9996 -0.0275
vn 0.8657 -0.4998 -0.0275
vn -0.8657 0.4998 -0.0275
vn -0.0000 0.9996 -0.0275
vn 0.8619 -0.4976 0.0977
vn -0.8619 0.4976 0.0977
vn -0.0000 0.9952 0.0977
vn 0.8619 0.4976 0.0977
vn -0.8619 -0.4976 0.0977
vn -0.0000 -0.9952 0.0977
vn -0.0000 0.9027 -0.4303
vn -0.7818 0.4514 -0.4301
vn 0.7818 -0.4514 -0.4303
vn -0.0000 -0.9028 -0.4301
vn -0.7819 -0.4514 -0.4301
vn 0.7817 0.4513 -0.4303
vn 0.5595 -0.3230 0.7633
vn -0.0055 0.7460 0.6660
vn 0.6449 0.3622 0.6729
vn 0.7818 -0.4513 -0.4303
vn -0.7818 -0.4514 -0.4301
vn 0.0039 -0.0023 1.0000
vt 0.093684 0.505409
vt 0.927207 0.790776
vt 0.093684 0.790776
vt 0.927203 0.790775
vt 0.061039 0.987895
vt 0.093685 0.790774
vt 0.927209 0.987899
vt 0.093686 0.702531
vt 0.927209 0.702532
vt 0.927204 0.987898
vt 0.093681 0.702531
vt 0.927204 0.702531
vt 0.093689 0.505409
vt 0.927207 0.790774
vt 0.093689 0.790774
vt 0.927209 0.987898
vt 0.093686 0.702530
vt 0.927209 0.702530
vt 0.927207 0.505409
vt 0.093685 0.505409
vt 0.927203 0.505409
vt 0.093686 0.987899
vt 0.093681 0.987898
vt 0.927207 0.505409
vt 0.093686 0.987898
vt 0.959853 0.987894
vt 0.061039 0.987894
vt 0.959853 0.505409
vt 0.061039 0.987898
vt 0.959853 0.505409
vt 0.061039 0.505409
vt 0.606156 0.154206
vt 0.498913 0.282688
vt 0.500409 0.214425
vt 0.442255 0.060893
vt 0.382519 0.217520
vt 0.274877 0.154455
vt 0.439589 0.438677
vt 0.606156 0.345362
vt 0.274583 0.346461
vt 0.379964 0.286460
vt 0.439657 0.180768
vt 0.441784 0.318303
vt 0.450966 0.255671
vt 0.444846 0.249778
vt 0.452151 0.245226
vt 0.432415 0.245604
vt 0.439780 0.252787
vt 0.431226 0.257294
vt 0.442294 0.261994
vt 0.442593 0.253681
vt 0.444336 0.252058
vt 0.442561 0.247957
vt 0.440398 0.249920
vt 0.442004 0.238524
vt 0.199201 0.519731
vt 0.731778 0.657583
vt 0.199201 0.657583
vt 0.199201 0.519731
vt 0.731774 0.657583
vt 0.199201 0.657582
vt 0.731779 0.965986
vt 0.199202 0.828134
vt 0.731779 0.828134
vt 0.731775 0.965986
vt 0.199198 0.828134
vt 0.731775 0.828133
vt 0.199203 0.519731
vt 0.731776 0.657583
vt 0.199203 0.657583
vt 0.199199 0.519731
vt 0.731776 0.657584
vt 0.199199 0.657584
vt 0.731777 0.519731
vt 0.731774 0.519731
vt 0.199202 0.965986
vt 0.199198 0.965987
vt 0.731776 0.519731
vt 0.731776 0.519731
vt 0.817933 0.965983
vt 0.113044 0.965983
vt 0.817933 0.519731
vt 0.817934 0.965986
vt 0.113044 0.965986
vt 0.113044 0.965986
vt 0.113044 0.965983
vt 0.113044 0.519731
vt 0.251570 0.091535
vt 0.456587 0.114894
vt 0.371068 0.165955
vt 0.251570 0.332766
vt 0.456073 0.314697
vt 0.455221 0.454210
vt 0.662083 0.093629
vt 0.457313 -0.025262
vt 0.660269 0.335252
vt 0.538376 0.264664
vt 0.374245 0.263166
vt 0.541621 0.166999
vt 0.660898 0.365458
vt 0.462889 0.248697
vt 0.660898 0.136793
vt 0.264463 0.365563
vt 0.460631 0.252337
vt 0.462753 0.253500
vt 0.462677 0.479870
vt 0.464808 0.252245
vt 0.464923 0.249883
vt 0.462941 0.022410
vt 0.264601 0.136656
vt 0.460754 0.249930
vt 0.484338 0.218084
vt 0.484505 0.448767
vt 0.282017 0.332231
vt 0.484503 0.211842
vt 0.484302 -0.019211
vt 0.687011 0.097704
vt 0.481834 0.216537
vt 0.481876 0.213515
vt 0.281698 0.098178
vt 0.687011 0.331789
vt 0.487061 0.213435
vt 0.486925 0.216549
vt 0.187446 0.519731
vt 0.743531 0.663668
vt 0.187446 0.663668
vt 0.187446 0.519731
vt 0.743528 0.663667
vt 0.187446 0.663667
vt 0.187444 0.519731
vt 0.743530 0.663668
vt 0.187444 0.663668
vt 0.187448 0.519731
vt 0.743534 0.663669
vt 0.187449 0.663668
vt 0.187449 0.519731
vt 0.743530 0.663667
vt 0.187449 0.663667
vt 0.187444 0.519731
vt 0.743530 0.663669
vt 0.187444 0.663669
vt 0.743531 0.519731
vt 0.743528 0.519731
vt 0.743530 0.519731
vt 0.743534 0.519731
vt 0.743530 0.519731
vt 0.743530 0.519731
vt 0.817933 0.931174
vt 0.113044 0.931174
vt 0.113043 0.931178
vt 0.817933 0.931177
vt 0.113043 0.931177
vt 0.113044 0.931178
vt 0.113044 0.931174
vt 0.817933 0.931178
vt 0.113044 0.931177
vt 0.302218 0.128060
vt 0.477869 0.157096
vt 0.418310 0.194072
vt 0.302218 0.335013
vt 0.476748 0.301336
vt 0.478534 0.434683
vt 0.652399 0.123419
vt 0.476083 0.023749
vt 0.652399 0.330372
vt 0.536307 0.264360
vt 0.415918 0.264383
vt 0.538699 0.194048
vt 0.796670 0.367710
vt 0.488512 0.352401
vt 0.796356 0.350528
vt 0.796670 0.291488
vt 0.488512 0.276179
vt 0.796356 0.274306
vt 0.796356 0.239941
vt 0.488512 0.238068
vt 0.796670 0.222758
vt 0.488860 0.219012
vt 0.796356 0.316163
vt 0.488860 0.295234
vt 0.796670 0.298980
vt 0.488512 0.314290
vt 0.302229 0.113879
vt 0.465497 0.166917
vt 0.432836 0.190824
vt 0.426233 0.228798
vt 0.302229 0.315119
vt 0.636917 0.296317
vt 0.505200 0.187455
vt 0.630896 0.113802
vt 0.477667 0.404008
vt 0.500908 0.233259
vt 0.460109 0.252799
vt 0.474698 0.019820
vt 0.352174 0.354924
vt 0.481820 0.236516
vt 0.486388 0.276446
vt 0.517844 0.297262
vt 0.522134 0.447554
vt 0.676642 0.147256
vt 0.516223 0.211185
vt 0.512112 0.063496
vt 0.686697 0.345431
vt 0.551993 0.234260
vt 0.547880 0.273596
vt 0.352174 0.156163
vt 0.817933 0.965986
vt 0.345940 0.657269
vt 0.838046 0.825749
vt 0.345940 0.825749
vt 0.751347 0.877687
vt 0.237667 0.700472
vt 0.751348 0.700472
vt 0.993507 0.816928
vt 0.424667 0.622179
vt 0.993507 0.622179
vt 0.959853 0.987895
vt 0.959853 0.987898
vt 0.061039 0.505409
vt 0.113044 0.519731
vt 0.817933 0.965983
vt 0.817933 0.931178
vt 0.817933 0.931174
vt 0.488860 0.371457
vt 0.838046 0.657269
vt 0.237667 0.877687
vt 0.424666 0.816927
vt 0.453697 1.431190
vt -0.468944 0.898510
vt -0.468944 -0.166860
vt 0.453693 -0.699548
vt 1.376334 -0.166868
vt 1.376334 0.898502
vt 0.053794 0.886410
vt 0.053794 0.395851
vt 0.478633 0.150573
vt 0.903469 0.395855
vt 0.903469 0.886415
vt 0.478630 1.131692
vt 0.150780 0.730531
vt 0.150780 0.250954
vt 0.566107 0.011168
vt 0.981433 0.250958
vt 0.981433 0.730535
vt 0.566105 0.970321
vt 0.083227 0.869417
vt 0.083227 0.415934
vt 0.475957 0.189194
vt 0.868685 0.415937
vt 0.868685 0.869421
vt 0.475955 1.096161
vt 0.009482 0.911994
vt 0.009481 0.365615
vt 0.482661 0.092429
vt 0.955838 0.365620
vt 0.955838 0.911999
vt 0.482659 1.185185
vt 0.096583 0.861706
vt 0.096583 0.425047
vt 0.474743 0.206719
vt 0.852901 0.425050
vt 0.852901 0.861710
vt 0.474741 1.080038
vt 0.261401 1.415814
vt -3.159404 0.394089
vt 0.258332 -1.480893
vt -0.511201 1.989469
vt -3.195478 4.577212
vt -0.399388 2.973084
vt 0.566019 6.470312
vt 0.507849 3.357240
vt 4.024073 4.230433
vt 1.292721 2.767609
vt 3.743168 0.183719
vt 1.134644 1.810758
vt 10.118212 8.114531
vt 0.329193 13.708544
vt -9.604945 -2.793368
vt 0.081268 -8.651552
vt 10.118212 -3.252031
vt -9.349292 8.284686
vt -3.979807 -6.604819
vt 0.604382 -6.082505
vt -1.307813 -4.940794
vt -3.979807 -1.210879
vt 0.592888 -1.614888
vt 0.573857 1.504623
vt 5.199305 -6.557997
vt 0.620617 -9.216413
vt 5.158750 -1.155285
vt -1.236781 -2.767148
vt 2.505769 -4.917433
s 0
g old.mainIsland.mushroom.mesh_mushroom_01.mat
usemtl mushroom_01.mat
f 11/1/1 10/2/1 12/3/1
f 8/4/2 17/5/2 10/6/2
f 7/7/3 6/8/3 8/9/3
f 5/10/4 4/11/4 6/12/4
f 3/13/5 2/14/5 4/15/5
f 1/16/6 12/17/6 2/18/6
f 11/1/1 9/19/1 10/2/1
f 9/20/7 7/21/7 8/4/7
f 7/7/8 5/22/8 6/8/8
f 5/10/4 3/23/4 4/11/4
f 3/13/5 1/24/5 2/14/5
f 1/16/6 11/25/6 12/17/6
f 4/15/9 13/26/9 14/27/9
f 6/8/10 16/28/10 8/9/10
f 10/2/11 18/29/11 12/3/11
f 12/17/12 13/30/12 2/18/12
f 9/20/7 8/4/7 10/6/7
f 6/12/13 14/31/13 15/28/13
f 47/56/32 46/57/32 48/58/32
f 45/59/33 44/60/33 46/61/33
f 43/62/34 42/63/34 44/64/34
f 41/65/35 40/66/35 42/67/35
f 39/68/36 38/69/36 40/70/36
f 37/71/37 48/72/37 38/73/37
f 47/56/32 45/74/32 46/57/32
f 45/59/33 43/75/33 44/60/33
f 43/62/34 41/76/34 42/63/34
f 41/65/35 39/77/35 40/66/35
f 39/68/36 37/78/36 38/69/36
f 37/71/37 47/79/37 48/72/37
f 40/70/38 49/80/38 50/81/38
f 42/63/39 52/82/39 44/64/39
f 48/58/40 53/83/40 54/84/40
f 48/72/41 49/85/41 38/73/41
f 44/60/42 53/86/42 46/61/42
f 42/67/43 50/87/43 51/82/43
f 83/124/62 82/125/62 84/126/62
f 81/127/63 80/128/63 82/129/63
f 79/130/64 78/131/64 80/132/64
f 77/133/65 76/134/65 78/135/65
f 75/136/66 74/137/66 76/138/66
f 73/139/67 84/140/67 74/141/67
f 83/124/62 81/142/62 82/125/62
f 81/127/63 79/143/63 80/128/63
f 79/130/68 77/144/68 78/131/68
f 77/133/65 75/145/65 76/134/65
f 75/136/66 73/146/66 74/137/66
f 73/139/67 83/147/67 84/140/67
f 76/138/69 85/148/69 86/149/69
f 78/131/70 88/150/70 80/132/70
f 84/126/71 89/151/71 90/152/71
f 84/140/72 85/153/72 74/141/72
f 80/128/73 89/154/73 82/129/73
f 78/135/74 86/155/74 87/156/74
f 123/59/99 122/60/99 124/61/99
f 121/62/100 120/63/100 122/64/100
f 119/65/101 118/66/101 120/67/101
f 117/68/102 116/69/102 118/70/102
f 115/71/103 126/72/103 116/73/103
f 123/59/99 121/75/99 122/60/99
f 121/62/100 119/76/100 120/63/100
f 119/65/101 117/77/101 118/66/101
f 117/68/102 115/78/102 116/69/102
f 115/71/103 125/79/103 126/72/103
f 118/70/104 127/80/104 128/81/104
f 120/63/105 130/82/105 122/64/105
f 126/58/106 131/83/106 132/84/106
f 126/72/107 127/85/107 116/73/107
f 122/60/108 131/86/108 124/61/108
f 120/67/109 128/87/109 129/82/109
f 165/59/116 164/60/116 166/61/116
f 163/62/117 162/63/117 164/64/117
f 161/65/118 160/66/118 162/67/118
f 159/68/119 158/69/119 160/70/119
f 157/71/120 168/72/120 158/73/120
f 165/59/116 163/75/116 164/60/116
f 163/62/117 161/76/117 162/63/117
f 161/65/118 159/77/118 160/66/118
f 159/68/119 157/78/119 158/69/119
f 157/71/120 167/79/120 168/72/120
f 160/70/121 169/80/121 170/81/121
f 162/63/122 172/82/122 164/64/122
f 166/57/123 174/84/123 168/58/123
f 168/72/124 169/85/124 158/73/124
f 164/60/125 173/86/125 166/61/125
f 162/67/126 170/87/126 171/82/126
f 207/59/130 206/60/130 208/61/130
f 205/62/131 204/63/131 206/64/131
f 203/65/132 202/66/132 204/67/132
f 201/68/133 200/69/133 202/70/133
f 199/71/134 210/72/134 200/73/134
f 207/59/135 205/75/135 206/60/135
f 205/62/131 203/76/131 204/63/131
f 203/65/132 201/77/132 202/66/132
f 201/68/133 199/78/133 200/69/133
f 199/71/136 209/79/136 210/72/136
f 202/70/137 211/80/137 212/81/137
f 204/63/138 214/82/138 206/64/138
f 210/58/139 215/83/139 216/84/139
f 200/73/140 216/207/140 211/85/140
f 206/60/141 215/86/141 208/61/141
f 204/67/142 212/87/142 213/82/142
f 208/208/149 209/209/149 207/210/149
f 166/211/150 167/212/150 165/213/150
f 124/214/151 125/215/151 123/216/151
f 8/4/2 16/217/2 17/5/2
f 4/15/9 2/14/9 13/26/9
f 6/8/10 15/31/10 16/28/10
f 10/2/152 17/218/152 18/29/152
f 12/17/12 18/219/12 13/30/12
f 6/12/13 4/11/13 14/31/13
f 40/70/38 38/69/38 49/80/38
f 42/63/39 51/220/39 52/82/39
f 48/58/157 46/57/157 53/83/157
f 48/72/41 54/207/41 49/85/41
f 44/60/42 52/221/42 53/86/42
f 42/67/43 40/66/43 50/87/43
f 76/138/69 74/137/69 85/148/69
f 78/131/70 87/155/70 88/150/70
f 84/126/71 82/125/71 89/151/71
f 84/140/72 90/222/72 85/153/72
f 80/128/73 88/223/73 89/154/73
f 78/135/74 76/134/74 86/155/74
f 118/70/104 116/69/104 127/80/104
f 120/63/105 129/220/105 130/82/105
f 126/58/106 124/57/106 131/83/106
f 126/72/107 132/207/107 127/85/107
f 122/60/108 130/221/108 131/86/108
f 120/67/109 118/66/109 128/87/109
f 160/70/121 158/69/121 169/80/121
f 162/63/122 171/220/122 172/82/122
f 166/57/159 173/83/159 174/84/159
f 168/72/124 174/207/124 169/85/124
f 164/60/160 172/221/160 173/86/160
f 162/67/126 160/66/126 170/87/126
f 202/70/161 200/69/161 211/80/161
f 204/63/138 213/220/138 214/82/138
f 210/58/139 208/57/139 215/83/139
f 200/73/162 210/72/162 216/207/162
f 206/60/141 214/221/141 215/86/141
f 204/67/142 202/66/142 212/87/142
f 208/208/149 210/225/149 209/209/149
f 166/211/150 168/226/150 167/212/150
f 124/214/151 126/227/151 125/215/151
f 251/56/32 250/57/32 252/58/32
f 249/59/33 248/60/33 250/61/33
f 247/62/34 246/63/34 248/64/34
f 245/65/35 244/66/35 246/67/35
f 243/68/36 242/69/36 244/70/36
f 241/71/37 252/72/37 242/73/37
f 251/56/32 249/74/32 250/57/32
f 249/59/33 247/75/33 248/60/33
f 247/62/34 245/76/34 246/63/34
f 245/65/35 243/77/35 244/66/35
f 243/68/36 241/78/36 242/69/36
f 241/71/37 251/79/37 252/72/37
f 244/70/38 253/80/38 254/81/38
f 246/63/39 256/82/39 248/64/39
f 252/58/40 257/83/40 258/84/40
f 252/72/41 253/85/41 242/73/41
f 248/60/42 257/86/42 250/61/42
f 246/67/43 254/87/43 255/82/43
f 244/70/38 242/69/38 253/80/38
f 246/63/39 255/220/39 256/82/39
f 252/58/157 250/57/157 257/83/157
f 252/72/41 258/207/41 253/85/41
f 248/60/42 256/221/42 257/86/42
f 246/67/43 244/66/43 254/87/43
f 3/228/163 5/229/163 7/230/163
f 7/230/163 9/231/163 3/228/163
f 9/231/163 11/232/163 3/228/163
f 11/232/163 1/233/163 3/228/163
f 39/234/163 41/235/163 43/236/163
f 43/236/163 45/237/163 39/234/163
f 45/237/163 47/238/163 39/234/163
f 47/238/163 37/239/163 39/234/163
f 75/240/163 77/241/163 79/242/163
f 79/242/163 81/243/163 75/240/163
f 81/243/163 83/244/163 75/240/163
f 83/244/163 73/245/163 75/240/163
f 117/246/163 119/247/163 121/248/163
f 121/248/163 123/249/163 117/246/163
f 123/249/163 125/250/163 117/246/163
f 125/250/163 115/251/163 117/246/163
f 159/252/163 161/253/163 163/254/163
f 163/254/163 283/255/163 159/252/163
f 283/255/163 167/256/163 159/252/163
f 167/256/163 157/257/163 159/252/163
f 201/258/163 203/259/163 205/260/163
f 205/260/163 285/261/163 201/258/163
f 285/261/163 286/262/163 201/258/163
f 286/262/163 284/263/163 201/258/163
f 243/234/163 245/235/163 247/236/163
f 247/236/163 249/237/163 243/234/163
f 249/237/163 251/238/163 243/234/163
f 251/238/163 241/239/163 243/234/163
f 295/264/164 294/265/164 296/266/164
f 293/267/165 292/268/165 294/265/165
f 291/269/166 290/270/166 292/268/166
f 289/271/167 288/272/167 290/270/167
f 287/273/168 298/274/168 288/272/168
f 295/264/169 293/267/169 294/265/169
f 293/267/165 291/269/165 292/268/165
f 291/269/166 289/271/166 290/270/166
f 289/271/167 287/273/167 288/272/167
f 287/273/170 297/275/170 298/274/170
f 290/270/171 299/276/171 300/277/171
f 292/268/172 302/278/172 294/265/172
f 298/274/173 303/279/173 304/280/173
f 288/272/174 304/280/174 299/276/174
f 294/265/175 303/279/175 296/266/175
f 292/268/176 300/277/176 301/281/176
f 299/282/177 310/283/177 305/284/177
f 300/285/178 307/286/178 301/287/178
f 303/288/179 310/283/179 304/289/179
f 302/290/180 307/286/180 308/97/180
f 299/282/181 306/291/181 300/285/181
f 302/290/182 309/292/182 303/288/182
f 296/266/201 297/275/201 295/264/201
f 290/270/202 288/272/202 299/276/202
f 292/268/172 301/281/172 302/278/172
f 298/274/173 296/266/173 303/279/173
f 288/272/203 298/274/203 304/280/203
f 294/265/175 302/278/175 303/279/175
f 292/268/176 290/270/176 300/277/176
f 299/282/177 304/289/177 310/283/177
f 300/285/178 306/291/178 307/286/178
f 303/288/179 309/292/179 310/283/179
f 302/290/180 301/287/180 307/286/180
f 299/282/181 305/284/181 306/291/181
f 302/290/182 308/97/182 309/292/182
f 296/266/201 298/274/201 297/275/201
f 289/271/206 291/269/206 293/267/206 295/264/206 297/275/206 287/273/206
g old.mainIsland.mushroom.mesh_mushroom_02.mat
usemtl mushroom_02.mat
f 13/32/14 24/33/14 19/34/14
f 14/35/15 21/36/15 15/37/15
f 17/38/16 24/33/16 18/39/16
f 16/40/17 21/36/17 22/41/17
f 13/32/18 20/42/18 14/35/18
f 16/40/19 23/43/19 17/38/19
f 31/44/20 25/45/20 32/46/20
f 33/47/21 28/48/21 34/49/21
f 35/50/22 28/48/22 29/51/22
f 31/44/23 29/51/23 30/52/23
f 33/47/24 26/53/24 27/54/24
f 32/46/25 26/53/25 36/55/25
f 20/42/26 32/46/26 36/55/26
f 20/42/27 33/47/27 21/36/27
f 23/43/28 31/44/28 24/33/28
f 22/41/29 35/50/29 23/43/29
f 22/41/30 33/47/30 34/49/30
f 19/34/31 31/44/31 32/46/31
f 49/88/44 60/89/44 55/90/44
f 50/91/45 57/92/45 51/93/45
f 53/94/46 60/89/46 54/95/46
f 52/96/47 57/92/47 58/97/47
f 49/88/48 56/98/48 50/91/48
f 52/96/49 59/99/49 53/94/49
f 103/100/50 61/101/50 104/102/50
f 106/103/51 63/104/51 64/105/51
f 107/106/52 64/105/52 65/107/52
f 103/100/53 65/107/53 66/108/53
f 108/109/54 63/104/54 105/110/54
f 104/102/55 62/111/55 108/109/55
f 66/112/56 71/113/56 72/114/56
f 63/115/57 68/116/57 69/117/57
f 61/118/58 68/116/58 62/119/58
f 66/112/59 67/120/59 61/118/59
f 63/115/60 70/121/60 64/122/60
f 64/122/61 71/113/61 65/123/61
f 85/157/75 96/158/75 91/159/75
f 86/160/76 93/161/76 87/162/76
f 89/163/77 96/158/77 90/164/77
f 88/165/78 93/161/78 94/166/78
f 85/157/79 92/167/79 86/160/79
f 88/165/80 95/168/80 89/163/80
f 109/169/81 97/170/81 110/171/81
f 111/172/82 100/173/82 112/174/82
f 113/175/83 100/173/83 101/176/83
f 109/177/84 101/176/84 102/178/84
f 114/179/85 99/180/85 111/181/85
f 110/171/86 98/182/86 114/179/86
f 56/183/87 104/184/87 108/185/87
f 56/183/88 105/186/88 57/187/88
f 59/188/89 103/189/89 60/190/89
f 58/191/90 107/192/90 59/188/90
f 58/191/91 105/186/91 106/193/91
f 55/194/92 103/189/92 104/184/92
f 92/195/93 110/196/93 114/197/93
f 92/195/94 111/198/94 93/199/94
f 95/200/95 109/201/95 96/202/95
f 94/203/96 113/204/96 95/200/96
f 93/199/97 112/205/97 94/203/97
f 91/206/98 109/201/98 110/196/98
f 127/88/44 138/89/44 133/90/44
f 128/91/45 135/92/45 129/93/45
f 131/94/46 138/89/46 132/95/46
f 130/96/47 135/92/47 136/97/47
f 127/88/48 134/98/48 128/91/48
f 130/96/49 137/99/49 131/94/49
f 151/100/50 139/101/50 152/102/50
f 154/103/51 141/104/51 142/105/51
f 155/106/52 142/105/52 143/107/52
f 151/100/53 143/107/53 144/108/53
f 156/109/54 141/104/54 153/110/54
f 152/102/55 140/111/55 156/109/55
f 143/123/110 150/114/110 144/112/110
f 141/115/111 146/116/111 147/117/111
f 139/118/112 146/116/112 140/119/112
f 144/112/113 145/120/113 139/118/113
f 141/115/114 148/121/114 142/122/114
f 142/122/115 149/113/115 143/123/115
f 134/183/87 152/184/87 156/185/87
f 134/183/88 153/186/88 135/187/88
f 137/188/89 151/189/89 138/190/89
f 136/191/90 155/192/90 137/188/90
f 136/191/91 153/186/91 154/193/91
f 133/194/92 151/189/92 152/184/92
f 169/88/44 180/89/44 175/90/44
f 170/91/45 177/92/45 171/93/45
f 173/94/46 180/89/46 174/95/46
f 172/96/47 177/92/47 178/97/47
f 169/88/48 176/98/48 170/91/48
f 172/96/49 179/99/49 173/94/49
f 193/100/50 181/101/50 194/102/50
f 196/103/51 183/104/51 184/105/51
f 197/106/52 184/105/52 185/107/52
f 193/100/53 185/107/53 186/108/53
f 198/109/54 183/104/54 195/110/54
f 194/102/55 182/111/55 198/109/55
f 185/123/127 192/114/127 186/112/127
f 183/115/128 188/116/128 189/117/128
f 181/118/58 188/116/58 182/119/58
f 186/112/59 187/120/59 181/118/59
f 183/115/129 190/121/129 184/122/129
f 184/122/61 191/113/61 185/123/61
f 176/183/87 194/184/87 198/185/87
f 176/183/88 195/186/88 177/187/88
f 179/188/89 193/189/89 180/190/89
f 178/191/90 197/192/90 179/188/90
f 178/191/91 195/186/91 196/193/91
f 175/194/92 193/189/92 194/184/92
f 211/88/44 222/89/44 217/90/44
f 212/91/45 219/92/45 213/93/45
f 215/94/46 222/89/46 216/95/46
f 214/96/47 219/92/47 220/97/47
f 211/88/48 218/98/48 212/91/48
f 214/96/49 221/99/49 215/94/49
f 235/100/50 223/101/50 236/102/50
f 238/103/51 225/104/51 226/105/51
f 239/106/52 226/105/52 227/107/52
f 235/100/53 227/107/53 228/108/53
f 240/109/54 225/104/54 237/110/54
f 236/102/55 224/111/55 240/109/55
f 227/123/143 234/114/143 228/112/143
f 225/115/144 230/116/144 231/117/144
f 223/118/145 230/116/145 224/119/145
f 228/112/146 229/120/146 223/118/146
f 225/115/147 232/121/147 226/122/147
f 226/122/148 233/113/148 227/123/148
f 218/183/87 236/184/87 240/185/87
f 218/183/88 237/186/88 219/187/88
f 221/188/89 235/189/89 222/190/89
f 220/191/90 239/192/90 221/188/90
f 220/191/91 237/186/91 238/193/91
f 217/194/92 235/189/92 236/184/92
f 13/32/14 18/39/14 24/33/14
f 14/35/15 20/42/15 21/36/15
f 17/38/16 23/43/16 24/33/16
f 16/40/17 15/37/17 21/36/17
f 13/32/18 19/34/18 20/42/18
f 16/40/19 22/41/19 23/43/19
f 31/44/153 30/52/153 25/45/153
f 33/47/21 27/54/21 28/48/21
f 35/50/22 34/49/22 28/48/22
f 31/44/154 35/50/154 29/51/154
f 33/47/24 36/55/24 26/53/24
f 32/46/25 25/45/25 26/53/25
f 20/42/26 19/34/26 32/46/26
f 20/42/155 36/55/155 33/47/155
f 23/43/28 35/50/28 31/44/28
f 22/41/29 34/49/29 35/50/29
f 22/41/156 21/36/156 33/47/156
f 19/34/31 24/33/31 31/44/31
f 49/88/44 54/95/44 60/89/44
f 50/91/45 56/98/45 57/92/45
f 53/94/46 59/99/46 60/89/46
f 52/96/47 51/93/47 57/92/47
f 49/88/48 55/90/48 56/98/48
f 52/96/49 58/97/49 59/99/49
f 103/100/50 66/108/50 61/101/50
f 106/103/51 105/110/51 63/104/51
f 107/106/52 106/103/52 64/105/52
f 103/100/53 107/106/53 65/107/53
f 108/109/54 62/111/54 63/104/54
f 104/102/55 61/101/55 62/111/55
f 66/112/56 65/123/56 71/113/56
f 63/115/128 62/119/128 68/116/128
f 61/118/58 67/120/58 68/116/58
f 66/112/158 72/114/158 67/120/158
f 63/115/60 69/117/60 70/121/60
f 64/122/61 70/121/61 71/113/61
f 85/157/75 90/164/75 96/158/75
f 86/160/76 92/167/76 93/161/76
f 89/163/77 95/168/77 96/158/77
f 88/165/78 87/162/78 93/161/78
f 85/157/79 91/159/79 92/167/79
f 88/165/80 94/166/80 95/168/80
f 109/169/81 102/224/81 97/170/81
f 111/172/82 99/180/82 100/173/82
f 113/175/83 112/174/83 100/173/83
f 109/177/84 113/175/84 101/176/84
f 114/179/85 98/182/85 99/180/85
f 110/171/86 97/170/86 98/182/86
f 56/183/87 55/194/87 104/184/87
f 56/183/88 108/185/88 105/186/88
f 59/188/89 107/192/89 103/189/89
f 58/191/90 106/193/90 107/192/90
f 58/191/91 57/187/91 105/186/91
f 55/194/92 60/190/92 103/189/92
f 92/195/93 91/206/93 110/196/93
f 92/195/94 114/197/94 111/198/94
f 95/200/95 113/204/95 109/201/95
f 94/203/96 112/205/96 113/204/96
f 93/199/97 111/198/97 112/205/97
f 91/206/98 96/202/98 109/201/98
f 127/88/44 132/95/44 138/89/44
f 128/91/45 134/98/45 135/92/45
f 131/94/46 137/99/46 138/89/46
f 130/96/47 129/93/47 135/92/47
f 127/88/48 133/90/48 134/98/48
f 130/96/49 136/97/49 137/99/49
f 151/100/50 144/108/50 139/101/50
f 154/103/51 153/110/51 141/104/51
f 155/106/52 154/103/52 142/105/52
f 151/100/53 155/106/53 143/107/53
f 156/109/54 140/111/54 141/104/54
f 152/102/55 139/101/55 140/111/55
f 143/123/110 149/113/110 150/114/110
f 141/115/111 140/119/111 146/116/111
f 139/118/112 145/120/112 146/116/112
f 144/112/113 150/114/113 145/120/113
f 141/115/114 147/117/114 148/121/114
f 142/122/115 148/121/115 149/113/115
f 134/183/87 133/194/87 152/184/87
f 134/183/88 156/185/88 153/186/88
f 137/188/89 155/192/89 151/189/89
f 136/191/90 154/193/90 155/192/90
f 136/191/91 135/187/91 153/186/91
f 133/194/92 138/190/92 151/189/92
f 169/88/44 174/95/44 180/89/44
f 170/91/45 176/98/45 177/92/45
f 173/94/46 179/99/46 180/89/46
f 172/96/47 171/93/47 177/92/47
f 169/88/48 175/90/48 176/98/48
f 172/96/49 178/97/49 179/99/49
f 193/100/50 186/108/50 181/101/50
f 196/103/51 195/110/51 183/104/51
f 197/106/52 196/103/52 184/105/52
f 193/100/53 197/106/53 185/107/53
f 198/109/54 182/111/54 183/104/54
f 194/102/55 181/101/55 182/111/55
f 185/123/127 191/113/127 192/114/127
f 183/115/128 182/119/128 188/116/128
f 181/118/58 187/120/58 188/116/58
f 186/112/59 192/114/59 187/120/59
f 183/115/60 189/117/60 190/121/60
f 184/122/61 190/121/61 191/113/61
f 176/183/87 175/194/87 194/184/87
f 176/183/88 198/185/88 195/186/88
f 179/188/89 197/192/89 193/189/89
f 178/191/90 196/193/90 197/192/90
f 178/191/91 177/187/91 195/186/91
f 175/194/92 180/190/92 193/189/92
f 211/88/44 216/95/44 222/89/44
f 212/91/45 218/98/45 219/92/45
f 215/94/46 221/99/46 222/89/46
f 214/96/47 213/93/47 219/92/47
f 211/88/48 217/90/48 218/98/48
f 214/96/49 220/97/49 221/99/49
f 235/100/50 228/108/50 223/101/50
f 238/103/51 237/110/51 225/104/51
f 239/106/52 238/103/52 226/105/52
f 235/100/53 239/106/53 227/107/53
f 240/109/54 224/111/54 225/104/54
f 236/102/55 223/101/55 224/111/55
f 227/123/143 233/113/143 234/114/143
f 225/115/144 224/119/144 230/116/144
f 223/118/145 229/120/145 230/116/145
f 228/112/146 234/114/146 229/120/146
f 225/115/147 231/117/147 232/121/147
f 226/122/148 232/121/148 233/113/148
f 218/183/87 217/194/87 236/184/87
f 218/183/88 240/185/88 237/186/88
f 221/188/89 239/192/89 235/189/89
f 220/191/90 238/193/90 239/192/90
f 220/191/91 219/187/91 237/186/91
f 217/194/92 222/190/92 235/189/92
f 253/88/44 264/89/44 259/90/44
f 254/91/45 261/92/45 255/93/45
f 257/94/46 264/89/46 258/95/46
f 256/96/47 261/92/47 262/97/47
f 253/88/48 260/98/48 254/91/48
f 256/96/49 263/99/49 257/94/49
f 277/100/50 265/101/50 278/102/50
f 280/103/51 267/104/51 268/105/51
f 281/106/52 268/105/52 269/107/52
f 277/100/53 269/107/53 270/108/53
f 282/109/54 267/104/54 279/110/54
f 278/102/55 266/111/55 282/109/55
f 270/112/56 275/113/56 276/114/56
f 267/115/57 272/116/57 273/117/57
f 265/118/58 272/116/58 266/119/58
f 270/112/59 271/120/59 265/118/59
f 267/115/60 274/121/60 268/122/60
f 268/122/61 275/113/61 269/123/61
f 260/183/87 278/184/87 282/185/87
f 260/183/88 279/186/88 261/187/88
f 263/188/89 277/189/89 264/190/89
f 262/191/90 281/192/90 263/188/90
f 262/191/91 279/186/91 280/193/91
f 259/194/92 277/189/92 278/184/92
f 253/88/44 258/95/44 264/89/44
f 254/91/45 260/98/45 261/92/45
f 257/94/46 263/99/46 264/89/46
f 256/96/47 255/93/47 261/92/47
f 253/88/48 259/90/48 260/98/48
f 256/96/49 262/97/49 263/99/49
f 277/100/50 270/108/50 265/101/50
f 280/103/51 279/110/51 267/104/51
f 281/106/52 280/103/52 268/105/52
f 277/100/53 281/106/53 269/107/53
f 282/109/54 266/111/54 267/104/54
f 278/102/55 265/101/55 266/111/55
f 270/112/56 269/123/56 275/113/56
f 267/115/128 266/119/128 272/116/128
f 265/118/58 271/120/58 272/116/58
f 270/112/158 276/114/158 271/120/158
f 267/115/60 273/117/60 274/121/60
f 268/122/61 274/121/61 275/113/61
f 260/183/87 259/194/87 278/184/87
f 260/183/88 282/185/88 279/186/88
f 263/188/89 281/192/89 277/189/89
f 262/191/90 280/193/90 281/192/90
f 262/191/91 261/187/91 279/186/91
f 259/194/92 264/190/92 277/189/92
f 323/100/183 311/101/183 324/102/183
f 326/103/184 313/104/184 314/105/184
f 327/106/185 314/105/185 315/107/185
f 323/100/186 315/107/186 316/108/186
f 328/109/187 313/104/187 325/110/187
f 324/102/188 312/111/188 328/109/188
f 315/123/189 322/114/189 316/112/189
f 313/115/190 318/116/190 319/117/190
f 311/118/191 318/116/191 312/119/191
f 316/112/192 317/120/192 311/118/192
f 313/115/193 320/121/193 314/122/193
f 314/122/194 321/113/194 315/123/194
f 306/183/195 324/184/195 328/185/195
f 306/183/196 325/186/196 307/187/196
f 309/188/197 323/189/197 310/190/197
f 308/191/198 327/192/198 309/188/198
f 308/191/199 325/186/199 326/193/199
f 305/194/200 323/189/200 324/184/200
f 323/100/183 316/108/183 311/101/183
f 326/103/184 325/110/184 313/104/184
f 327/106/185 326/103/185 314/105/185
f 323/100/186 327/106/186 315/107/186
f 328/109/187 312/111/187 313/104/187
f 324/102/188 311/101/188 312/111/188
f 315/123/189 321/113/189 322/114/189
f 313/115/190 312/119/190 318/116/190
f 311/118/191 317/120/191 318/116/191
f 316/112/192 322/114/192 317/120/192
f 313/115/193 319/117/193 320/121/193
f 314/122/194 320/121/194 321/113/194
f 306/183/195 305/194/195 324/184/195
f 306/183/196 328/185/196 325/186/196
f 309/188/204 327/192/204 323/189/204
f 308/191/198 326/193/198 327/192/198
f 308/191/205 307/187/205 325/186/205
f 305/194/200 310/190/200 323/189/200
