# Blender 5.1.1
# www.blender.org
mtllib model.mtl
o ballMesh.002
v 0.000000 -0.268338 1.025543
v 0.134169 -0.232388 1.025543
v 0.232388 -0.134169 1.025543
v 0.268338 0.000000 1.025543
v 0.232388 0.134169 1.025543
v 0.134169 0.232388 1.025543
v 0.000000 0.268338 1.025543
v 0.067085 -0.232388 0.909349
v 0.116194 -0.134169 0.824289
v 0.134169 -0.000000 0.793155
v 0.116194 0.134169 0.824289
v 0.067085 0.232388 0.909349
v -0.067085 -0.232388 0.909349
v -0.116194 -0.134169 0.824289
v -0.134169 -0.000000 0.793155
v -0.116194 0.134169 0.824289
v -0.067085 0.232388 0.909349
v -0.134169 -0.232388 1.025543
v -0.232388 -0.134169 1.025543
v -0.232388 0.134169 1.025543
v -0.134169 0.232388 1.025543
v -0.067085 -0.232388 1.141737
v -0.116194 -0.134169 1.226796
v -0.134169 0.000000 1.257931
v -0.116194 0.134169 1.226796
v -0.067085 0.232388 1.141737
v 0.067085 -0.232388 1.141737
v 0.116194 -0.134169 1.226796
v 0.134169 0.000000 1.257930
v 0.116194 0.134169 1.226796
v 0.067085 0.232388 1.141737
v -0.158038 -0.038705 0.940113
v -0.164075 -0.000000 0.930606
v -0.158038 0.038705 0.940113
v -0.244908 0.071866 1.025543
v -0.244908 -0.071866 1.025543
v -0.158038 0.038705 1.110972
v -0.164075 0.000000 1.120479
v -0.158038 -0.038705 1.110972
v -0.116194 -0.134169 0.824289
v -0.134169 -0.000000 0.793155
v -0.116194 0.134169 0.824289
v -0.232388 0.134169 1.025543
v -0.232388 -0.134169 1.025543
v -0.116194 0.134169 1.226796
v -0.134169 0.000000 1.257931
v -0.116194 -0.134169 1.226796
v 0.064028 -0.000000 0.930607
v -0.040236 0.000000 1.025543
v -0.016806 0.071866 1.025543
v -0.016806 -0.071866 1.025543
v 0.064028 0.000000 1.120479
v 0.070064 -0.038705 0.940113
v 0.070064 0.038705 0.940113
v 0.070064 0.038705 1.110972
v 0.070064 -0.038705 1.110972
vn 0.6050 0.7962 -0.0000
vn 0.8961 0.4438 -0.0000
vn 0.5621 0.5237 -0.6401
vn 0.2761 0.8960 -0.3478
vn 1.0000 -0.0000 -0.0000
vn 0.8961 -0.4438 -0.0000
vn 0.5621 -0.5237 -0.6401
vn 0.6608 -0.0000 -0.7506
vn 0.6050 -0.7962 -0.0000
vn -0.0000 -1.0000 -0.0000
vn 0.2761 -0.8960 -0.3478
vn -0.0000 1.0000 -0.0000
vn -0.2544 -0.8832 -0.3940
vn -0.1691 -0.7349 -0.6568
vn -0.2761 -0.8960 -0.3478
vn -0.2761 0.8960 -0.3478
vn -0.3662 -0.2318 -0.9012
vn -0.6050 -0.7962 -0.0000
vn -0.6050 0.7962 -0.0000
vn -0.3967 -0.3772 0.8368
vn -0.7128 -0.7014 -0.0000
vn -0.0137 -0.9998 0.0163
vn -0.0582 -0.9942 -0.0902
vn -0.3369 -0.9415 -0.0049
vn -0.1046 -0.9942 -0.0239
vn -0.2761 0.8960 0.3478
vn -0.1632 -0.7054 0.6898
vn 0.1368 -0.9874 0.0790
vn -0.2761 -0.8960 0.3478
vn -0.2086 -0.9070 0.3657
vn -0.0790 -0.9874 -0.1368
vn 0.2761 0.8960 0.3478
vn 0.6608 -0.0000 0.7506
vn 0.5621 0.5237 0.6401
vn 0.2761 -0.8960 0.3478
vn 0.5621 -0.5237 0.6401
vn 0.1421 -0.0000 0.9899
vn 0.1100 0.7480 0.6546
vn -0.8423 0.4546 0.2898
vn -0.8139 -0.0000 0.5809
vn 0.0179 -0.9998 -0.0060
vn 0.0889 -0.6528 0.7523
vn -0.8227 -0.5301 0.2055
vn -0.4760 -0.8793 -0.0150
vn -0.0097 -0.7960 -0.6053
vn -0.8969 -0.4060 -0.1756
vn 0.0179 0.9998 -0.0060
vn -0.0097 0.7960 -0.6053
vn -0.8785 0.4014 -0.2590
vn -0.4760 0.8793 -0.0150
vn 0.1354 -0.9820 0.1320
vn -0.0779 -0.9820 -0.1723
vn 0.0193 -0.9998 0.0090
vn -0.9202 -0.1836 -0.3457
vn -0.9069 -0.3005 -0.2952
vn -0.9574 -0.2777 -0.0788
vn -0.9820 -0.0350 -0.1854
vn -0.9069 0.3005 -0.2952
vn -0.9398 0.1016 -0.3262
vn -0.9888 0.0492 -0.1409
vn -0.9574 0.2777 -0.0788
vn -0.8208 0.0039 -0.5712
vn -0.8098 -0.1124 -0.5758
vn -0.8055 -0.1406 -0.5756
vn -0.8872 -0.1732 -0.4277
vn -0.8098 0.1124 -0.5758
vn -0.8641 0.0194 -0.5029
vn -0.8774 0.2020 -0.4351
vn -0.8055 0.1406 -0.5756
vn -0.8029 -0.1267 0.5825
vn -0.8861 -0.0855 0.4556
vn -0.8649 -0.2280 0.4472
vn -0.8101 -0.1492 0.5671
vn -0.9114 0.2641 0.3156
vn -0.9078 0.2464 0.3395
vn -0.9427 0.3123 0.1175
vn -0.9722 0.0353 0.2316
vn -0.8861 0.0855 0.4556
vn -0.8029 0.1267 0.5825
vn -0.8101 0.1492 0.5671
vn -0.8649 0.2280 0.4472
vn -0.9144 -0.3312 0.2329
vn -0.9114 -0.2641 0.3156
vn -0.9722 -0.0353 0.2316
vn -0.9713 -0.2315 0.0545
vn -1.0000 -0.0000 -0.0000
vn -0.8159 -0.0275 -0.5775
vn 0.1080 0.0924 -0.9899
vt 0.447713 0.925802
vt 0.448160 0.882916
vt 0.491046 0.883363
vt 0.490599 0.926250
vt 0.448607 0.840031
vt 0.449055 0.797145
vt 0.491940 0.797592
vt 0.491493 0.840478
vt 0.449502 0.754259
vt 0.471391 0.711597
vt 0.492387 0.754706
vt 0.468709 0.968912
vt 0.534826 0.798039
vt 0.534379 0.840925
vt 0.514278 0.712044
vt 0.535273 0.755153
vt 0.511595 0.969359
vt 0.533485 0.926697
vt 0.533932 0.883811
vt 0.557163 0.712491
vt 0.578158 0.755600
vt 0.554481 0.969806
vt 0.576370 0.927144
vt 0.619704 0.884705
vt 0.576817 0.884258
vt 0.577711 0.798486
vt 0.597366 0.970253
vt 0.619257 0.927591
vt 0.362836 0.839137
vt 0.362389 0.882022
vt 0.621045 0.756048
vt 0.620598 0.798933
vt 0.600049 0.712938
vt 0.382938 0.968017
vt 0.361942 0.924908
vt 0.404827 0.925355
vt 0.405721 0.839584
vt 0.405274 0.882469
vt 0.363283 0.796251
vt 0.363730 0.753365
vt 0.406616 0.753812
vt 0.406168 0.796698
vt 0.385620 0.710703
vt 0.425823 0.968465
vt 0.428506 0.711150
vt 0.544551 0.840899
vt 0.545558 0.817813
vt 0.577360 0.864601
vt 0.545074 0.864265
vt 0.608971 0.864931
vt 0.577844 0.818150
vt 0.609456 0.818479
vt 0.609978 0.841845
vt 0.620151 0.841819
vt 0.577264 0.841372
s 1
usemtl wormyMat.002
f 6/1/1 5/2/2 11/3/3 12/4/4
f 4/5/5 3/6/6 9/7/7 10/8/8
f 2/9/9 1/10/10 8/11/11
f 7/12/12 6/1/1 12/4/4
f 5/2/2 4/5/5 10/8/8 11/3/3
f 3/6/6 2/9/9 8/11/11 9/7/7
f 10/8/8 9/7/7 14/13/13 15/14/14
f 8/11/11 1/15/10 13/16/15
f 7/17/12 12/4/4 17/18/16
f 11/3/3 10/8/8 15/14/14 16/19/17
f 9/7/7 8/11/11 13/16/15 14/13/13
f 12/4/4 11/3/3 16/19/17 17/18/16
f 13/16/15 1/20/10 18/21/18
f 7/22/12 17/18/16 21/23/19
f 25/24/20 20/25/21 43/25/22 45/24/23
f 14/13/13 13/16/15 18/21/18 19/26/24
f 17/18/16 16/19/17 20/25/21 21/23/19
f 20/25/21 16/19/17 42/19/25 43/25/22
f 7/27/12 21/23/19 26/28/26
f 24/29/27 25/30/20 45/30/23 46/29/28
f 19/26/24 18/21/18 22/31/29 23/32/30
f 21/23/19 20/25/21 25/24/20 26/28/26
f 16/19/17 15/14/14 41/14/31 42/19/25
f 18/21/18 1/33/10 22/31/29
f 7/34/12 26/35/26 31/36/32
f 25/30/20 24/29/27 29/37/33 30/38/34
f 23/39/30 22/40/29 27/41/35 28/42/36
f 26/35/26 25/30/20 30/38/34 31/36/32
f 24/29/27 23/39/30 28/42/36 29/37/33
f 22/40/29 1/43/10 27/41/35
f 7/44/12 31/36/32 6/1/1
f 30/38/34 29/37/33 4/5/5 5/2/2
f 28/42/36 27/41/35 2/9/9 3/6/6
f 31/36/32 30/38/34 5/2/2 6/1/1
f 29/37/33 28/42/36 3/6/6 4/5/5
f 27/41/35 1/45/10 2/9/9
f 33/46/37 32/47/38 53/47/39 48/46/40
f 35/48/41 34/49/42 54/49/43 50/48/44
f 37/50/45 35/48/41 50/48/44 55/50/46
f 36/51/47 39/52/48 56/52/49 51/51/50
f 15/14/14 14/13/13 40/13/51 41/14/31
f 23/39/30 24/29/27 46/29/28 47/39/52
f 14/13/13 19/26/24 44/26/53 40/13/51
f 19/26/24 23/32/30 47/32/52 44/26/53
s 0
f 32/47/54 33/46/55 41/14/56 40/13/57
f 33/46/58 34/49/59 42/19/60 41/14/61
f 34/49/62 35/48/63 43/25/64 42/19/65
f 36/51/66 32/47/67 40/13/68 44/26/69
f 35/48/70 37/50/71 45/24/72 43/25/73
f 37/50/74 38/53/75 46/54/76 45/24/77
f 39/52/78 36/51/79 44/26/80 47/32/81
f 38/53/82 39/52/83 47/32/84 46/54/85
s 1
f 54/49/43 48/46/40 49/55/86 50/48/44
f 48/46/40 53/47/39 51/51/50 49/55/86
f 50/48/44 49/55/86 52/53/87 55/50/46
f 49/55/86 51/51/50 56/52/49 52/53/87
f 39/52/48 38/53/88 52/53/87 56/52/49
f 38/53/88 37/50/45 55/50/46 52/53/87
f 32/47/38 36/51/47 51/51/50 53/47/39
f 34/49/42 33/46/37 48/46/40 54/49/43
