# Blender 5.1.1
# www.blender.org
mtllib model.mtl
o ballMesh
v -0.625000 -2.165062 1.282886
v -1.082533 -1.250000 2.075353
v -1.250000 0.000000 2.365418
v -1.082533 1.250000 2.075353
v -0.625000 2.165062 1.282886
v 0.625000 -2.165062 1.282886
v 1.082533 -1.250000 2.075353
v 1.250000 0.000000 2.365416
v 1.082533 1.250000 2.075353
v 0.625000 2.165062 1.282886
v -0.625000 -2.165062 1.282886
v -1.082533 -1.250000 2.075353
v -1.250000 0.000000 2.365418
v -1.082533 1.250000 2.075353
v -0.625000 2.165062 1.282886
v 0.625000 -2.165062 1.282886
v 1.082533 -1.250000 2.075353
v 1.250000 0.000000 2.365416
v 1.082533 1.250000 2.075353
v 0.625000 2.165062 1.282886
vn -0.5621 0.5237 0.6401
vn -0.6608 -0.0000 0.7505
vn 0.6608 -0.0000 0.7505
vn 0.5621 0.5237 0.6401
vn -0.5621 -0.5237 0.6401
vn -0.2761 -0.8960 0.3478
vn 0.2761 -0.8960 0.3478
vn 0.5621 -0.5237 0.6401
vn -0.2761 0.8960 0.3478
vn 0.2761 0.8960 0.3478
vn 0.5621 -0.5237 -0.6401
vn -0.5621 -0.5238 -0.6401
vn -0.6609 -0.0000 -0.7505
vn 0.6609 -0.0000 -0.7505
vn 0.5621 0.5238 -0.6401
vn -0.5621 0.5237 -0.6401
vn -0.2761 0.8960 -0.3478
vn 0.2761 0.8960 -0.3478
vn 0.2761 -0.8960 -0.3478
vn -0.2761 -0.8960 -0.3478
vt 0.362389 0.882022
vt 0.362836 0.839137
vt 0.405721 0.839584
vt 0.405274 0.882469
vt 0.363283 0.796251
vt 0.363730 0.753365
vt 0.406616 0.753812
vt 0.406168 0.796698
vt 0.361942 0.924908
vt 0.404827 0.925355
s 1
usemtl wormyMat
f 4/1/1 3/2/2 8/3/3 9/4/4
f 2/5/5 1/6/6 6/7/7 7/8/8
f 5/9/9 4/1/1 9/4/4 10/10/10
f 3/2/2 2/5/5 7/8/8 8/3/3
f 14/1/11 19/4/12 18/3/13 13/2/14
f 12/5/15 17/8/16 16/7/17 11/6/18
f 15/9/19 20/10/20 19/4/12 14/1/11
f 13/2/14 18/3/13 17/8/16 12/5/15
