# Blender 5.0.1
# www.blender.org
mtllib model.mtl
o NetMesh
v -68.590981 -202.910202 10.086585
v -68.590981 -202.910202 10.586925
v -67.314560 -202.817337 10.086585
v -67.314560 -202.817337 10.586925
v -68.498116 -204.186630 10.086585
v -68.498116 -204.186630 10.586925
v -67.221687 -204.093781 10.086585
v -67.221687 -204.093781 10.586925
v -67.026039 -203.437943 10.086585
v -67.026039 -203.437943 10.586925
v -68.786636 -203.566025 10.086585
v -68.786636 -203.566025 10.586925
v -67.970375 -202.621704 10.086585
v -67.970375 -202.621704 10.586925
v -67.842293 -204.382278 10.086585
v -67.842293 -204.382278 10.586925
v -67.906334 -203.501984 10.580565
v -67.906334 -203.501984 10.092944
v -68.087830 -243.613434 10.155081
v -68.087830 -243.613434 10.655420
v -66.811401 -243.520569 10.155081
v -66.811401 -243.520569 10.655420
v -67.994972 -244.889862 10.155081
v -67.994972 -244.889862 10.655420
v -66.718544 -244.796997 10.155081
v -66.718544 -244.796997 10.655420
v -66.522896 -244.141190 10.155081
v -66.522896 -244.141190 10.655420
v -68.283493 -244.269257 10.155081
v -68.283493 -244.269257 10.655420
v -67.467224 -243.324921 10.155081
v -67.467224 -243.324921 10.655420
v -67.339134 -245.085526 10.155081
v -67.339134 -245.085526 10.655420
v -67.403175 -244.205215 10.649061
v -67.403175 -244.205215 10.161440
v -68.262825 -243.454269 13.900165
v -68.262825 -243.454269 14.400504
v -66.744949 -243.343857 13.900165
v -66.744949 -243.343857 14.400504
v -68.152405 -244.972153 13.900165
v -68.152405 -244.972153 14.400504
v -66.634529 -244.861725 13.900165
v -66.634529 -244.861725 14.400504
v -66.401848 -244.081848 13.900165
v -66.401848 -244.081848 14.400504
v -68.495499 -244.234161 13.900165
v -68.495499 -244.234161 14.400504
v -67.524834 -243.111176 13.900165
v -67.524834 -243.111176 14.400504
v -67.372520 -245.204834 13.900165
v -67.372520 -245.204834 14.400504
v -67.448669 -244.158005 14.394145
v -67.448669 -244.158005 13.906524
v -68.794846 -202.678024 13.807184
v -68.794846 -202.678024 14.307524
v -67.276962 -202.567596 13.807184
v -67.276962 -202.567596 14.307524
v -68.684418 -204.195908 13.807184
v -68.684418 -204.195908 14.307524
v -67.166534 -204.085480 13.807184
v -67.166534 -204.085480 14.307524
v -66.933876 -203.305603 13.807184
v -66.933876 -203.305603 14.307524
v -69.027519 -203.457916 13.807184
v -69.027519 -203.457916 14.307524
v -68.056839 -202.334930 13.807184
v -68.056839 -202.334930 14.307524
v -67.904526 -204.428574 13.807184
v -67.904526 -204.428574 14.307524
v -67.980682 -203.381760 14.301165
v -67.980682 -203.381760 13.813543
v -67.906013 -203.528214 14.219376
v -67.636383 -203.520599 14.219376
v -67.662613 -243.845963 14.219376
v -67.396278 -243.842041 14.219376
v -67.902725 -203.524506 10.268785
v -67.902725 -203.524506 10.535130
v -67.636383 -203.520599 10.268785
v -67.636383 -203.520599 10.535130
v -67.662613 -243.845963 10.268785
v -67.662613 -243.845963 10.535130
v -67.396278 -243.842041 10.268785
v -67.396278 -243.842041 10.535130
v -67.602081 -209.280792 13.799054
v -67.567780 -215.041031 13.438666
v -67.533478 -220.801239 13.182765
v -67.499184 -226.561447 13.182765
v -67.464882 -232.321640 13.438666
v -67.430573 -238.081833 13.799054
v -67.696907 -238.085754 13.799054
v -67.731209 -232.325546 13.438666
v -67.765518 -226.565338 13.182765
v -67.799812 -220.805161 13.182765
v -67.834114 -215.044952 13.438666
v -67.868423 -209.284729 13.799054
v -67.430573 -238.081833 9.848464
v -67.464882 -232.321640 9.488076
v -67.499176 -226.561432 9.232175
v -67.533478 -220.801239 9.232175
v -67.567780 -215.041031 9.488076
v -67.602081 -209.280792 9.848464
v -67.604370 -208.895630 10.142915
v -67.428276 -238.467911 10.142982
v -67.871712 -209.288437 9.848464
v -67.834114 -215.044952 9.488076
v -67.799812 -220.805161 9.232175
v -67.765518 -226.565338 9.232175
v -67.731209 -232.325546 9.488076
v -67.696907 -238.085754 9.848464
v -67.694611 -238.471832 10.142982
v -67.870712 -208.899551 10.142915
vn 0.2858 0.9583 -0.0000
vn 0.9583 -0.2859 -0.0000
vn -0.2859 -0.9583 -0.0000
vn -0.9583 0.2859 -0.0000
vn 0.0046 0.0053 -1.0000
vn 0.0053 -0.0046 1.0000
vn 0.0046 0.0053 1.0000
vn 0.0053 -0.0046 -1.0000
vn -0.9068 -0.4216 -0.0000
vn 0.9068 0.4216 -0.0000
vn -0.0046 -0.0053 -1.0000
vn -0.0053 0.0046 1.0000
vn -0.0046 -0.0053 1.0000
vn -0.0053 0.0046 -1.0000
vn 0.4215 -0.9068 -0.0000
vn -0.4215 0.9068 -0.0000
vn 0.2859 0.9583 -0.0000
vn 0.9068 0.4215 -0.0000
vn 0.4216 -0.9068 -0.0000
vn -0.4216 0.9068 -0.0000
vn 0.0039 0.0045 -1.0000
vn 0.0045 -0.0039 1.0000
vn 0.0039 0.0045 1.0000
vn 0.0045 -0.0039 -1.0000
vn -0.0039 -0.0045 -1.0000
vn -0.0045 0.0039 1.0000
vn -0.0039 -0.0045 1.0000
vn -0.0045 0.0039 -1.0000
vn 0.0016 -0.0728 0.9973
vn 1.0000 0.0060 -0.0000
vn 0.0011 -0.0728 -0.9973
vn 0.0011 -0.0728 0.9973
vn -0.0011 0.0728 0.9973
vn -0.0009 0.0624 0.9980
vn -0.0006 0.0444 0.9990
vn -0.0000 -0.0000 1.0000
vn 0.0007 -0.0444 0.9990
vn 0.0009 -0.0624 0.9980
vn 0.0089 -0.6043 -0.7967
vn -0.0130 0.6043 -0.7967
vn -0.0016 0.0727 -0.9973
vn -0.0013 0.0625 -0.9980
vn -0.0007 0.0444 -0.9990
vn -0.0000 -0.0000 -1.0000
vn 0.0007 -0.0444 -0.9990
vn 0.0009 -0.0624 -0.9980
vn -1.0000 -0.0061 0.0001
vn -1.0000 -0.0061 0.0060
vn -1.0000 -0.0060 -0.0000
vt 0.932147 0.238114
vt 0.956814 0.238114
vt 0.956814 0.250447
vt 0.932147 0.250447
vt 0.932147 0.262780
vt 0.956814 0.262780
vt 0.956814 0.275114
vt 0.932147 0.275114
vt 0.932147 0.287447
vt 0.956814 0.287447
vt 0.956814 0.299781
vt 0.932147 0.299781
vt 0.932147 0.312114
vt 0.956814 0.312114
vt 0.956814 0.324448
vt 0.932147 0.324448
vt 0.919814 0.287447
vt 0.919814 0.299781
vt 0.969147 0.287447
vt 0.981481 0.287447
vt 0.981481 0.299781
vt 0.969147 0.299781
vt 0.907480 0.287447
vt 0.907480 0.299781
vt 0.907480 0.275114
vt 0.919814 0.275114
vt 0.969147 0.275114
vt 0.981481 0.275114
vt 0.932147 0.225780
vt 0.956814 0.225780
vt 0.932147 0.336781
vt 0.956814 0.336781
vt 0.956814 0.349114
vt 0.932147 0.349114
vt 0.932147 0.361448
vt 0.956814 0.361448
vt 0.956814 0.373781
vt 0.932147 0.373781
vt 0.932147 0.386115
vt 0.956814 0.386115
vt 0.956814 0.398448
vt 0.932147 0.398448
vt 0.932147 0.410781
vt 0.956814 0.410781
vt 0.956814 0.423115
vt 0.932147 0.423115
vt 0.919814 0.386115
vt 0.919814 0.398448
vt 0.969147 0.386115
vt 0.981481 0.386115
vt 0.981481 0.398448
vt 0.969147 0.398448
vt 0.907480 0.386115
vt 0.907480 0.398448
vt 0.907480 0.373781
vt 0.919814 0.373781
vt 0.969147 0.373781
vt 0.981481 0.373781
vt 0.932147 0.435448
vt 0.956814 0.435448
vt 0.956814 0.447782
vt 0.932147 0.447782
vt 0.932147 0.460115
vt 0.956814 0.460115
vt 0.956814 0.472448
vt 0.932147 0.472448
vt 0.932147 0.484781
vt 0.956814 0.484781
vt 0.956814 0.497115
vt 0.932147 0.497115
vt 0.932147 0.509448
vt 0.956814 0.509448
vt 0.956814 0.521782
vt 0.932147 0.521782
vt 0.919814 0.484781
vt 0.919814 0.497115
vt 0.969147 0.484781
vt 0.981481 0.484781
vt 0.981481 0.497115
vt 0.969147 0.497115
vt 0.907480 0.484781
vt 0.907480 0.497115
vt 0.907480 0.472448
vt 0.919814 0.472448
vt 0.969147 0.472448
vt 0.981481 0.472448
vt 0.932147 0.534115
vt 0.956814 0.534115
vt 0.956814 0.546449
vt 0.932147 0.546449
vt 0.932147 0.558782
vt 0.956814 0.558782
vt 0.956814 0.571115
vt 0.932147 0.571115
vt 0.932147 0.583448
vt 0.956814 0.583448
vt 0.956814 0.595782
vt 0.932147 0.595782
vt 0.932147 0.608115
vt 0.956814 0.608115
vt 0.956814 0.620449
vt 0.932147 0.620449
vt 0.919814 0.583448
vt 0.919814 0.595782
vt 0.969147 0.583448
vt 0.981481 0.583448
vt 0.981481 0.595782
vt 0.969147 0.595782
vt 0.907480 0.583448
vt 0.907480 0.595782
vt 0.907480 0.571115
vt 0.919814 0.571115
vt 0.969147 0.571115
vt 0.981481 0.571115
vt 0.922906 0.334573
vt 0.920815 0.030910
vt 0.934995 0.031128
vt 0.936912 0.334600
vt 0.918211 2.487672
vt 0.932324 2.508949
vt 0.934276 2.792258
vt 0.920303 2.791335
vt 1.007771 -0.606913
vt 1.007771 -0.303241
vt 0.993767 -0.303119
vt 0.993767 -0.606791
vt 0.932545 -0.323590
vt 0.937462 -0.606912
vt 0.951461 -0.606546
vt 0.946546 -0.323225
vt 0.935461 2.154309
vt 0.933369 1.850644
vt 0.947373 1.850672
vt 0.949465 2.154334
vt 0.931277 1.547196
vt 0.945282 1.547221
vt 0.929184 1.244040
vt 0.943189 1.244065
vt 0.927091 0.941182
vt 0.941096 0.941207
vt 0.924998 0.638026
vt 0.939004 0.638050
vt 0.946329 2.508974
vt 0.948281 2.792286
vt 0.979588 -0.302925
vt 0.979588 -0.606596
vt 0.993766 -0.606913
vt 0.993592 -0.303046
vt 0.979588 -0.606914
vt 0.979555 -0.303451
vt 0.965551 -0.303331
vt 0.965409 -0.606599
vt 0.979519 -0.000285
vt 0.965515 -0.000164
vt 0.979481 0.302583
vt 0.965477 0.302703
vt 0.979446 0.605750
vt 0.965442 0.605870
vt 0.979414 0.909209
vt 0.965409 0.909331
vt 0.923479 -0.606134
vt 0.918211 -0.302511
vt 0.054625 -2.050576
vt -0.009863 -2.934352
vt 0.660747 -2.050576
vt 0.716039 -1.166802
vt 0.755300 -0.283021
vt 0.755301 0.600755
vt 0.716039 1.484531
vt 0.660746 2.368317
vt -0.009863 3.252091
vt 0.054626 2.368317
vt 0.109918 1.484533
vt 0.149180 0.600757
vt 0.149180 -0.283024
vt 0.109919 -1.166797
vt 0.058275 -2.063859
vt -0.006212 -2.947076
vt 0.664396 -2.063295
vt 0.719690 -1.180081
vt 0.758950 -0.296304
vt 0.758950 0.587467
vt 0.719690 1.471243
vt 0.664397 2.355020
vt -0.006213 3.238803
vt 0.058275 2.355022
vt 0.113568 1.471243
vt 0.152830 0.587467
vt 0.152829 -0.296304
vt 0.113568 -1.180081
vt 0.965409 -0.605286
vt 0.960125 -0.301468
vt 0.960149 2.487506
vt 0.962240 2.791169
s 0
g NetMesh_netMat
usemtl netMat
f 13/1/1 14/2/1 4/3/1 3/4/1
f 9/5/2 10/6/2 8/7/2 7/8/2
f 15/9/3 16/10/3 6/11/3 5/12/3
f 11/13/4 12/14/4 2/15/4 1/16/4
f 18/17/5 15/9/5 5/12/5 11/18/5
f 17/19/6 14/20/6 2/21/6 12/22/6
f 16/10/7 17/19/7 12/22/7 6/11/7
f 13/23/8 18/17/8 11/18/8 1/24/8
f 5/12/9 6/11/9 12/14/9 11/13/9
f 3/4/10 4/3/10 10/6/10 9/5/10
f 3/25/11 9/26/11 18/17/11 13/23/11
f 8/7/12 10/27/12 17/19/12 16/10/12
f 10/27/13 4/28/13 14/20/13 17/19/13
f 9/26/14 7/8/14 15/9/14 18/17/14
f 7/8/15 8/7/15 16/10/15 15/9/15
f 1/29/16 2/30/16 14/2/16 13/1/16
f 31/31/17 32/32/17 22/33/17 21/34/17
f 27/35/2 28/36/2 26/37/2 25/38/2
f 33/39/3 34/40/3 24/41/3 23/42/3
f 29/43/4 30/44/4 20/45/4 19/46/4
f 36/47/5 33/39/5 23/42/5 29/48/5
f 35/49/6 32/50/6 20/51/6 30/52/6
f 34/40/7 35/49/7 30/52/7 24/41/7
f 31/53/8 36/47/8 29/48/8 19/54/8
f 23/42/9 24/41/9 30/44/9 29/43/9
f 21/34/18 22/33/18 28/36/18 27/35/18
f 21/55/11 27/56/11 36/47/11 31/53/11
f 26/37/12 28/57/12 35/49/12 34/40/12
f 28/57/13 22/58/13 32/50/13 35/49/13
f 27/56/14 25/38/14 33/39/14 36/47/14
f 25/38/19 26/37/19 34/40/19 33/39/19
f 19/16/20 20/15/20 32/32/20 31/31/20
f 49/59/17 50/60/17 40/61/17 39/62/17
f 45/63/2 46/64/2 44/65/2 43/66/2
f 51/67/3 52/68/3 42/69/3 41/70/3
f 47/71/4 48/72/4 38/73/4 37/74/4
f 54/75/21 51/67/21 41/70/21 47/76/21
f 53/77/22 50/78/22 38/79/22 48/80/22
f 52/68/23 53/77/23 48/80/23 42/69/23
f 49/81/24 54/75/24 47/76/24 37/82/24
f 41/70/9 42/69/9 48/72/9 47/71/9
f 39/62/10 40/61/10 46/64/10 45/63/10
f 39/83/25 45/84/25 54/75/25 49/81/25
f 44/65/26 46/85/26 53/77/26 52/68/26
f 46/85/27 40/86/27 50/78/27 53/77/27
f 45/84/28 43/66/28 51/67/28 54/75/28
f 43/66/19 44/65/19 52/68/19 51/67/19
f 37/46/20 38/45/20 50/60/20 49/59/20
f 67/87/17 68/88/17 58/89/17 57/90/17
f 63/91/2 64/92/2 62/93/2 61/94/2
f 69/95/3 70/96/3 60/97/3 59/98/3
f 65/99/4 66/100/4 56/101/4 55/102/4
f 72/103/21 69/95/21 59/98/21 65/104/21
f 71/105/22 68/106/22 56/107/22 66/108/22
f 70/96/23 71/105/23 66/108/23 60/97/23
f 67/109/24 72/103/24 65/104/24 55/110/24
f 59/98/9 60/97/9 66/100/9 65/99/9
f 57/90/10 58/89/10 64/92/10 63/91/10
f 57/111/25 63/112/25 72/103/25 67/109/25
f 62/93/26 64/113/26 71/105/26 70/96/26
f 64/113/27 58/114/27 68/106/27 71/105/27
f 63/112/28 61/94/28 69/95/28 72/103/28
f 61/94/19 62/93/19 70/96/19 69/95/19
f 55/74/20 56/73/20 68/88/20 67/87/20
f 85/115/29 74/116/29 73/117/29 96/118/29
f 97/119/30 104/120/30 84/121/30 83/122/30
f 97/123/31 83/124/31 81/125/31 110/126/31
f 103/127/32 80/128/32 78/129/32 112/130/32
f 76/131/33 90/132/33 91/133/33 75/134/33
f 90/132/34 89/135/34 92/136/34 91/133/34
f 89/135/35 88/137/35 93/138/35 92/136/35
f 88/137/36 87/139/36 94/140/36 93/138/36
f 87/139/37 86/141/37 95/142/37 94/140/37
f 86/141/38 85/115/38 96/118/38 95/142/38
f 75/134/39 111/143/39 104/120/39 76/131/39
f 73/117/40 74/116/40 103/127/40 112/130/40
f 84/121/33 104/120/33 111/143/33 82/144/33
f 79/145/41 102/146/41 105/147/41 77/148/41
f 102/149/42 101/150/42 106/151/42 105/152/42
f 101/150/43 100/153/43 107/154/43 106/151/43
f 100/153/44 99/155/44 108/156/44 107/154/44
f 99/155/45 98/157/45 109/158/45 108/156/45
f 98/157/46 97/159/46 110/160/46 109/158/46
f 79/161/30 80/128/30 103/127/30 102/162/30
f 90/163/30 76/164/30 97/165/30 98/166/30 99/167/30 100/168/30 101/169/30 102/170/30 74/171/30 85/172/30 86/173/30 87/174/30 88/175/30 89/176/30
f 96/177/47 73/178/47 105/179/47 106/180/47 107/181/47 108/182/47 109/183/47 110/184/47 75/185/47 91/186/47 92/187/47 93/188/47 94/189/47 95/190/47
f 112/130/48 78/129/48 77/191/48 105/192/48
f 110/193/49 81/194/49 82/144/49 111/143/49
